<svg xmlns="http://www.w3.org/2000/svg" xmlns:xlink="http://www.w3.org/1999/xlink" width="2000" zoomAndPan="magnify" viewBox="0 0 1500 749.999995" height="1000" preserveAspectRatio="xMidYMid meet" version="1.0"><defs><g/><clipPath id="2e36bdb7ef"><path d="M 382 8 L 1087 8 L 1087 743 L 382 743 Z M 382 8 " clip-rule="nonzero"/></clipPath><clipPath id="3edb4183ad"><path d="M 1080.625 749.996094 L 363.253906 725.800781 L 388.101562 -10.871094 L 1105.46875 13.324219 Z M 1080.625 749.996094 " clip-rule="nonzero"/></clipPath><clipPath id="bdc145adce"><path d="M 1080.625 749.996094 L 363.253906 725.800781 L 388.101562 -10.871094 L 1105.46875 13.324219 Z M 1080.625 749.996094 " clip-rule="nonzero"/></clipPath><clipPath id="f90e6e2df3"><path d="M 0.238281 154 L 1033 154 L 1033 586 L 0.238281 586 Z M 0.238281 154 " clip-rule="nonzero"/></clipPath><clipPath id="c554c37121"><rect x="0" width="1033" y="0" height="432"/></clipPath><clipPath id="cbfff0a85a"><rect x="0" width="1110" y="0" height="750"/></clipPath></defs><g transform="matrix(1, 0, 0, 1, 192, -0.000000000000042435)"><g clip-path="url(#cbfff0a85a)"><g clip-path="url(#2e36bdb7ef)"><g clip-path="url(#3edb4183ad)"><g clip-path="url(#bdc145adce)"><path fill="#e8956d" d="M 382.003906 216.324219 C 410.570312 169.25 451.039062 140.535156 492.398438 126.5625 C 521.910156 116.597656 551.882812 114.136719 578.320312 117.871094 C 604.839844 121.617188 627.832031 131.597656 643.285156 146.496094 C 650.355469 153.308594 655.847656 161.148438 659.386719 169.886719 C 742.246094 51.636719 844.101562 5.363281 927.507812 9.210938 C 965.886719 10.984375 1000.367188 23.355469 1027.324219 44.210938 C 1054.304688 65.082031 1073.742188 94.4375 1081.992188 130.144531 C 1098.988281 203.695312 1068.503906 304.214844 958.628906 412.949219 C 942.664062 428.75 933.3125 443.519531 929.117188 457.683594 C 957.246094 438.855469 989.160156 426.273438 1021.542969 422.515625 C 1025.757812 422.027344 1029.855469 421.652344 1033.808594 421.402344 C 1047.230469 420.542969 1058.371094 421.152344 1066.332031 423.332031 C 1074.707031 425.625 1079.710938 429.679688 1080.402344 435.621094 L 1080.402344 435.625 C 1080.417969 435.785156 1080.4375 435.988281 1080.453125 436.226562 L 1080.453125 436.230469 C 1081.242188 448.609375 1075.078125 455.597656 1068.066406 463.546875 L 1067.011719 464.742188 C 1058.046875 474.953125 1052.792969 486.164062 1049.765625 498.128906 C 1046.714844 510.171875 1045.90625 522.980469 1045.828125 536.308594 C 1045.753906 548.933594 1043.621094 558.601562 1039.945312 565.699219 C 1035.761719 573.78125 1029.589844 578.550781 1022.160156 580.566406 C 1014.828125 582.558594 1006.308594 581.832031 997.304688 578.941406 C 994.179688 577.933594 990.988281 576.667969 987.769531 575.160156 C 991.363281 578.847656 995.035156 582.574219 998.75 586.347656 C 1001.824219 589.46875 1004.929688 592.625 1008.054688 595.816406 C 1030.472656 618.722656 1019.242188 631.394531 1003.882812 648.730469 C 989.125 665.382812 970.390625 686.53125 975.988281 726.253906 C 976.285156 728.382812 975.820312 729.855469 974.707031 730.703125 C 972.277344 732.558594 966.648438 730.289062 959.441406 724.515625 C 952.671875 719.09375 944.222656 710.542969 935.5625 699.5 C 927.316406 688.980469 918.875 676.179688 911.496094 661.65625 C 909.429688 663.574219 907.570312 665.632812 905.996094 667.882812 C 899.59375 677.023438 894.667969 688.105469 891.027344 699.359375 C 886.472656 713.441406 883.9375 727.761719 883.042969 738.910156 C 882.90625 740.621094 882.28125 741.746094 881.25 742.320312 C 879.636719 743.214844 877.269531 742.464844 874.464844 740.234375 C 872.023438 738.285156 869.085938 735.148438 865.914062 730.972656 C 852.121094 712.796875 833.566406 674.414062 832.285156 628.488281 C 830.894531 578.675781 852.554688 531.128906 886.511719 494.183594 C 892.242188 487.949219 898.320312 482.023438 904.699219 476.433594 L 903.75 474.324219 C 903.066406 472.808594 902.402344 471.425781 901.75 470.164062 C 900.160156 471.90625 898.679688 473.296875 897.363281 474.226562 C 891.121094 478.660156 887.046875 477.71875 884.824219 474.589844 C 883.085938 472.140625 882.671875 468.253906 883.347656 464.71875 C 884.03125 461.117188 885.863281 457.792969 888.59375 456.5625 C 892.074219 454.992188 896.839844 456.78125 902.214844 465.675781 C 911.035156 454.867188 922.324219 434.917969 927.246094 420.664062 C 928.917969 415.816406 929.839844 411.6875 929.636719 408.890625 C 929.484375 406.761719 928.550781 405.578125 926.578125 405.789062 C 922.871094 406.1875 916.308594 410.148438 905.925781 419.234375 C 898.605469 425.640625 892.917969 431.816406 888.296875 437.777344 C 883.6875 443.726562 880.136719 449.476562 877.09375 455.039062 C 875.582031 457.796875 874.003906 461.085938 872.320312 464.597656 C 866.976562 475.738281 860.574219 489.09375 851.453125 495.777344 C 848.175781 503.578125 841.410156 512.386719 829.65625 521.113281 C 821.953125 526.835938 813.335938 531.746094 805.128906 536.425781 L 805.125 536.421875 C 796.800781 541.171875 788.890625 545.679688 782.886719 550.496094 C 771.675781 559.492188 767.214844 569.722656 779.679688 585.253906 L 777.636719 586.882812 C 763.878906 569.738281 768.835938 558.421875 781.257812 548.457031 C 787.40625 543.523438 795.40625 538.960938 803.832031 534.15625 L 803.832031 534.152344 C 811.988281 529.503906 820.546875 524.625 828.101562 519.015625 C 837.75 511.847656 843.886719 504.699219 847.414062 498.191406 C 846.613281 498.5625 845.792969 498.886719 844.953125 499.148438 C 838.40625 501.210938 833.203125 500.269531 829.679688 497.675781 C 827.78125 496.277344 826.378906 494.410156 825.523438 492.277344 C 824.679688 490.164062 824.367188 487.796875 824.632812 485.371094 C 825.207031 480.144531 828.476562 474.640625 834.910156 470.9375 C 839.3125 468.410156 843.730469 468.515625 847.230469 470.59375 C 849.328125 471.839844 851.078125 473.800781 852.265625 476.324219 C 853.421875 478.785156 854.046875 481.785156 853.933594 485.179688 C 853.871094 486.996094 853.597656 488.929688 853.082031 490.960938 C 860.070312 484.101562 865.414062 472.957031 869.964844 463.472656 C 871.667969 459.917969 873.261719 456.59375 874.800781 453.78125 C 877.898438 448.125 881.515625 442.269531 886.234375 436.183594 C 890.941406 430.105469 896.742188 423.808594 904.214844 417.273438 C 915.039062 407.796875 922.097656 403.644531 926.308594 403.191406 C 930.15625 402.777344 931.96875 404.890625 932.242188 408.714844 C 932.46875 411.871094 931.496094 416.351562 929.714844 421.515625 C 924.621094 436.265625 912.75 457.058594 903.578125 468.0625 C 904.417969 469.613281 905.269531 471.335938 906.128906 473.246094 L 906.757812 474.648438 C 912.765625 469.503906 919.023438 464.660156 925.496094 460.152344 C 929.363281 444.6875 939.183594 428.519531 956.789062 411.097656 C 1065.921875 303.09375 1096.257812 203.488281 1079.445312 130.734375 C 1071.332031 95.632812 1052.238281 66.78125 1025.730469 46.273438 C 999.191406 25.746094 965.21875 13.5625 927.390625 11.816406 C 844.429688 7.992188 742.960938 54.34375 660.5 172.847656 C 662.234375 177.851562 663.347656 183.136719 663.761719 188.675781 C 664.785156 202.230469 659.832031 211.523438 654.265625 215.894531 C 651.316406 218.207031 648.144531 219.1875 645.488281 218.75 C 642.65625 218.28125 640.445312 216.300781 639.644531 212.726562 C 638.441406 207.335938 640.644531 197.976562 649.550781 184.382812 C 652.203125 180.332031 654.882812 176.355469 657.582031 172.460938 C 654.21875 163.425781 648.703125 155.347656 641.472656 148.378906 C 626.414062 133.863281 603.9375 124.125 577.957031 120.457031 C 551.902344 116.777344 522.347656 119.207031 493.234375 129.039062 C 452.40625 142.828125 412.457031 171.183594 384.238281 217.679688 Z M 661.15625 188.863281 C 660.808594 184.234375 659.953125 179.792969 658.632812 175.546875 C 656.316406 178.914062 654.015625 182.332031 651.730469 185.820312 C 643.269531 198.730469 641.121094 207.359375 642.191406 212.160156 C 642.730469 214.5625 644.136719 215.878906 645.914062 216.171875 C 647.867188 216.496094 650.300781 215.695312 652.65625 213.84375 C 657.660156 209.914062 662.105469 201.421875 661.15625 188.863281 Z M 928.089844 461.535156 C 919.425781 498.824219 946.257812 532.117188 982.054688 569.269531 C 987.488281 572.339844 992.890625 574.773438 998.105469 576.449219 C 1006.644531 579.191406 1014.660156 579.898438 1021.476562 578.046875 C 1028.203125 576.222656 1033.800781 571.875 1037.625 564.496094 C 1041.121094 557.746094 1043.144531 548.472656 1043.21875 536.292969 C 1043.296875 522.769531 1044.121094 509.753906 1047.226562 497.492188 C 1050.351562 485.152344 1055.777344 473.578125 1065.054688 463.019531 L 1066.105469 461.824219 C 1072.738281 454.304688 1078.570312 447.699219 1077.847656 436.394531 L 1077.800781 435.921875 C 1077.25 431.179688 1072.925781 427.851562 1065.644531 425.855469 C 1057.945312 423.75 1047.09375 423.164062 1033.964844 424.003906 C 1030.164062 424.246094 1026.117188 424.621094 1021.84375 425.113281 C 988.917969 428.933594 956.476562 442 928.089844 461.535156 Z M 996.886719 588.179688 C 991.265625 582.46875 985.75 576.867188 980.425781 571.347656 C 971.609375 566.320312 962.726562 559.664062 954.386719 551.855469 C 927.128906 526.324219 920.554688 511.695312 906.054688 479.4375 L 905.820312 478.921875 C 899.734375 484.292969 893.921875 489.980469 888.4375 495.945312 C 854.910156 532.421875 833.523438 579.328125 834.894531 628.421875 C 836.160156 673.707031 854.421875 711.507812 867.996094 729.394531 C 871.03125 733.394531 873.8125 736.375 876.089844 738.191406 C 878.011719 739.71875 879.375 740.375 879.988281 740.035156 C 880.222656 739.90625 880.378906 739.46875 880.4375 738.710938 C 881.351562 727.371094 883.921875 712.828125 888.535156 698.558594 C 892.246094 687.085938 897.285156 675.769531 903.855469 666.390625 C 905.691406 663.769531 907.867188 661.402344 910.28125 659.226562 C 889.386719 616.839844 877.929688 560.339844 906.164062 502.6875 L 907.898438 499.144531 L 908.617188 503.019531 C 908.644531 503.15625 917.121094 550.035156 943.652344 581.160156 C 968.304688 610.082031 964.945312 624.554688 952.40625 635.242188 C 947.28125 639.613281 940.628906 643.269531 933.761719 647.046875 C 926.726562 650.914062 919.457031 654.910156 913.523438 659.871094 C 920.890625 674.480469 929.355469 687.34375 937.625 697.890625 C 946.144531 708.761719 954.441406 717.160156 961.078125 722.472656 C 967.277344 727.441406 971.722656 729.699219 973.132812 728.625 C 973.449219 728.382812 973.550781 727.722656 973.394531 726.613281 C 967.628906 685.699219 986.816406 664.046875 1001.925781 646.996094 C 1016.355469 630.710938 1026.902344 618.808594 1006.191406 597.648438 C 1003.066406 594.457031 999.960938 591.300781 996.886719 588.179688 Z M 973.070312 563.632812 C 941.097656 529.660156 918.128906 498.484375 924.652344 463.941406 C 918.871094 468.078125 913.269531 472.480469 907.875 477.128906 L 908.433594 478.371094 C 922.785156 510.296875 929.292969 524.773438 956.171875 549.949219 C 961.632812 555.066406 967.324219 559.671875 973.070312 563.632812 Z M 906.847656 507.320312 C 881.308594 562.59375 892.332031 616.589844 912.332031 657.464844 C 918.347656 652.539062 925.539062 648.585938 932.507812 644.75 C 939.253906 641.042969 945.789062 637.449219 950.714844 633.25 C 962.097656 623.546875 964.941406 610.164062 941.660156 582.851562 C 919.238281 556.542969 909.507812 519.25 906.847656 507.320312 Z M 900.449219 467.753906 C 895.851562 459.675781 892.167969 457.816406 889.667969 458.941406 C 887.769531 459.796875 886.449219 462.363281 885.910156 465.203125 C 885.355469 468.109375 885.636719 471.21875 886.953125 473.074219 C 888.34375 475.03125 891.171875 475.421875 895.851562 472.097656 C 897.214844 471.128906 898.773438 469.640625 900.449219 467.753906 Z M 844.167969 496.65625 C 845.980469 496.085938 847.703125 495.207031 849.339844 494.082031 C 850.613281 490.84375 851.234375 487.820312 851.324219 485.09375 C 851.425781 482.125 850.894531 479.53125 849.90625 477.433594 C 848.949219 475.398438 847.554688 473.828125 845.894531 472.839844 C 843.195312 471.238281 839.726562 471.1875 836.214844 473.203125 C 830.582031 476.445312 827.722656 481.1875 827.230469 485.65625 C 827.011719 487.652344 827.265625 489.589844 827.953125 491.304688 C 828.628906 492.996094 829.734375 494.46875 831.226562 495.566406 C 834.121094 497.699219 838.511719 498.4375 844.167969 496.65625 Z M 844.167969 496.65625 " fill-opacity="1" fill-rule="nonzero"/></g></g></g><g fill="#ffffff" fill-opacity="1"><g transform="translate(292.688292, 593.911267)"><g><path d="M 14.410156 34.683594 C 14.316406 34.683594 14.238281 34.691406 14.175781 34.707031 C 14.1875 34.707031 14.210938 34.695312 14.246094 34.679688 C 14.421875 34.59375 14.648438 34.449219 14.925781 34.246094 C 15.605469 33.75 16.46875 32.976562 17.519531 31.925781 C 19.710938 29.734375 27.53125 20.285156 40.972656 3.582031 L 42.617188 4.90625 L 42.460938 7.007812 C 33.652344 6.363281 25.910156 3.402344 19.234375 -1.871094 C 12.5625 -7.144531 8.039062 -13.457031 5.660156 -20.8125 L 5.699219 -20.800781 C 5.992188 -20.449219 6.394531 -20.273438 6.898438 -20.273438 C 7.75 -20.273438 8.34375 -20.632812 8.683594 -21.347656 L 8.691406 -21.332031 C 8.621094 -21.054688 8.539062 -20.597656 8.449219 -19.96875 C 8.25 -18.601562 8.023438 -16.53125 7.769531 -13.757812 C 7.265625 -8.203125 7.011719 -0.855469 7.011719 8.277344 C 7.011719 17.554688 7.769531 24.460938 9.28125 28.996094 C 10.542969 32.785156 12.253906 34.683594 14.410156 34.683594 Z M 14.410156 38.898438 C 10.230469 38.898438 7.1875 36.042969 5.28125 30.328125 C 3.625 25.359375 2.796875 18.011719 2.796875 8.277344 C 2.796875 -0.984375 3.054688 -8.457031 3.574219 -14.140625 C 3.832031 -16.988281 4.066406 -19.132812 4.277344 -20.578125 C 4.386719 -21.351562 4.5 -21.949219 4.605469 -22.375 C 4.964844 -23.785156 5.730469 -24.488281 6.898438 -24.488281 C 8.21875 -24.488281 9.140625 -23.695312 9.671875 -22.109375 C 11.789062 -15.566406 15.847656 -9.921875 21.847656 -5.179688 C 27.847656 -0.441406 34.820312 2.222656 42.769531 2.804688 L 46.777344 3.097656 L 44.257812 6.226562 C 30.71875 23.046875 22.800781 32.605469 20.5 34.910156 C 17.839844 37.566406 15.808594 38.898438 14.410156 38.898438 Z M 136.367188 -30.738281 C 122.375 -21.480469 107.40625 -13.25 91.464844 -6.050781 C 75.421875 1.195312 61.875 5.441406 50.824219 6.691406 L 50.585938 4.597656 L 52.160156 6 L 19.953125 42.199219 L 19.933594 42.21875 C 16.449219 45.933594 13.28125 47.789062 10.425781 47.789062 C 0.84375 47.789062 -3.949219 37.378906 -3.949219 16.554688 C -3.949219 -2.445312 -1.160156 -21.648438 4.414062 -41.050781 C 5.46875 -44.742188 6.457031 -47.539062 7.378906 -49.4375 C 8.632812 -52.019531 10.054688 -53.308594 11.648438 -53.308594 L 12.523438 -53.308594 L 17.019531 -48.8125 L 16.777344 -47.6875 C 15.785156 -43.132812 15.292969 -39.195312 15.292969 -35.871094 C 15.292969 -25.824219 18.253906 -17.839844 24.179688 -11.914062 C 30.140625 -5.953125 37.558594 -2.683594 46.429688 -2.101562 L 46.292969 0 L 44.65625 -1.324219 C 87.160156 -53.839844 129.046875 -106.867188 170.324219 -160.40625 L 171.992188 -159.117188 L 173.203125 -157.390625 L 160.941406 -148.804688 C 157.445312 -146.339844 149.140625 -140.90625 136.035156 -132.507812 C 122.902344 -124.097656 111.148438 -117.167969 100.773438 -111.722656 C 90.375 -106.265625 78.746094 -101.121094 65.890625 -96.289062 C 52.878906 -91.394531 41.949219 -88.949219 33.109375 -88.949219 C 26.492188 -88.949219 21.46875 -90.691406 18.042969 -94.175781 C 14.625 -97.652344 12.914062 -102.742188 12.914062 -109.449219 C 12.914062 -117.328125 15.332031 -126.414062 20.164062 -136.710938 C 24.957031 -146.917969 32.171875 -157.359375 41.816406 -168.042969 C 51.421875 -178.679688 62.46875 -188.488281 74.957031 -197.464844 C 87.496094 -206.480469 102.503906 -213.886719 119.976562 -219.675781 C 137.464844 -225.46875 155.519531 -228.367188 174.140625 -228.367188 C 179.152344 -228.367188 182.980469 -227.515625 185.628906 -225.808594 C 188.574219 -223.910156 190.042969 -221.097656 190.042969 -217.367188 C 190.042969 -210.476562 185.308594 -201.972656 175.832031 -191.859375 C 166.589844 -181.996094 155.234375 -173.230469 141.765625 -165.5625 C 128.15625 -157.816406 115.953125 -153.945312 105.160156 -153.945312 L 105.042969 -153.945312 C 102.738281 -154.074219 100.945312 -154.671875 99.671875 -155.734375 C 98.246094 -156.921875 97.53125 -158.5625 97.53125 -160.652344 C 97.53125 -164.046875 98.988281 -167.378906 101.898438 -170.640625 C 104.875 -173.96875 107.441406 -175.636719 109.605469 -175.636719 C 112.542969 -175.636719 114.011719 -174.625 114.011719 -172.605469 C 114.011719 -171.367188 113.269531 -170.078125 111.78125 -168.742188 C 111.417969 -168.414062 111.160156 -168.128906 111.007812 -167.886719 L 110.945312 -167.855469 C 110.945312 -168.304688 110.75 -168.644531 110.359375 -168.871094 C 110.308594 -168.902344 110.277344 -168.917969 110.273438 -168.917969 C 110.371094 -168.898438 110.507812 -168.890625 110.675781 -168.890625 C 117.886719 -168.890625 127.265625 -171.976562 138.808594 -178.144531 C 150.507812 -184.398438 160.683594 -191.5 169.339844 -199.453125 C 177.675781 -207.109375 181.84375 -212.875 181.84375 -216.753906 C 181.84375 -219.234375 179.171875 -220.472656 173.832031 -220.472656 C 159.039062 -220.472656 142.492188 -215.898438 124.191406 -206.746094 C 105.75 -197.523438 89.289062 -186.636719 74.808594 -174.082031 C 60.304688 -161.503906 48.089844 -148.683594 38.164062 -135.613281 C 28.433594 -122.808594 23.570312 -112.859375 23.570312 -105.773438 C 23.570312 -102.882812 24.449219 -100.753906 26.203125 -99.386719 C 28.121094 -97.894531 31.140625 -97.148438 35.257812 -97.148438 C 48.410156 -97.148438 66.535156 -103.050781 89.636719 -114.855469 C 112.949219 -126.765625 133.253906 -138.824219 150.542969 -151.027344 C 167.714844 -163.152344 177.664062 -171.15625 180.382812 -175.042969 L 180.414062 -175.085938 L 180.449219 -175.128906 C 182.300781 -177.507812 185.359375 -178.699219 189.621094 -178.699219 C 194.605469 -178.699219 197.097656 -176.976562 197.097656 -173.527344 C 197.097656 -171.046875 195.847656 -167.992188 193.351562 -164.363281 L 193.328125 -164.324219 L 193.296875 -164.285156 C 155.65625 -114.371094 110.042969 -59.144531 56.457031 1.398438 L 54.878906 0 L 54.628906 -2.09375 C 74.9375 -4.507812 99.871094 -15.632812 129.429688 -35.472656 L 129.457031 -35.492188 L 150.0625 -48.410156 L 150.101562 -48.429688 C 151.855469 -49.433594 153.738281 -49.933594 155.746094 -49.933594 C 158.785156 -49.933594 160.304688 -49.027344 160.304688 -47.214844 C 160.304688 -46.054688 159.6875 -45.058594 158.449219 -44.234375 L 158.414062 -44.210938 L 136.304688 -30.699219 L 135.203125 -32.496094 Z M 134.074219 -34.277344 L 156.179688 -47.785156 L 157.277344 -45.988281 L 156.109375 -47.742188 C 156.214844 -47.8125 156.273438 -47.855469 156.28125 -47.867188 C 156.152344 -47.695312 156.089844 -47.476562 156.089844 -47.214844 C 156.089844 -46.613281 156.320312 -46.140625 156.78125 -45.796875 C 156.90625 -45.703125 157.003906 -45.648438 157.074219 -45.628906 C 156.832031 -45.6875 156.390625 -45.71875 155.746094 -45.71875 C 154.484375 -45.71875 153.300781 -45.402344 152.191406 -44.769531 L 151.144531 -46.601562 L 152.265625 -44.816406 L 131.726562 -31.9375 L 130.605469 -33.722656 L 131.78125 -31.972656 C 101.65625 -11.753906 76.105469 -0.398438 55.128906 2.09375 L 49.632812 2.746094 L 53.300781 -1.398438 C 106.8125 -61.855469 152.359375 -116.996094 189.933594 -166.824219 L 191.617188 -165.554688 L 189.878906 -166.75 C 191.878906 -169.660156 192.878906 -171.917969 192.878906 -173.527344 C 192.878906 -174.164062 191.792969 -174.484375 189.621094 -174.484375 C 186.734375 -174.484375 184.785156 -173.835938 183.773438 -172.539062 L 182.113281 -173.832031 L 183.839844 -172.625 C 180.835938 -168.335938 170.546875 -159.988281 152.976562 -147.585938 C 135.519531 -135.261719 115.046875 -123.101562 91.554688 -111.097656 C 67.851562 -98.988281 49.085938 -92.933594 35.257812 -92.933594 C 30.175781 -92.933594 26.296875 -93.976562 23.617188 -96.058594 C 20.773438 -98.269531 19.351562 -101.507812 19.351562 -105.773438 C 19.351562 -113.808594 24.503906 -124.605469 34.804688 -138.164062 C 44.910156 -151.464844 57.320312 -164.496094 72.046875 -177.265625 C 86.792969 -190.054688 103.546875 -201.136719 122.304688 -210.515625 C 141.199219 -219.964844 158.378906 -224.6875 173.832031 -224.6875 C 181.984375 -224.6875 186.058594 -222.042969 186.058594 -216.753906 C 186.058594 -211.640625 181.4375 -204.839844 172.195312 -196.347656 C 163.273438 -188.152344 152.808594 -180.847656 140.796875 -174.425781 C 128.632812 -167.925781 118.589844 -164.675781 110.675781 -164.675781 C 109.683594 -164.675781 108.871094 -164.859375 108.234375 -165.230469 C 107.230469 -165.816406 106.730469 -166.691406 106.730469 -167.855469 C 106.730469 -169.195312 107.472656 -170.535156 108.960938 -171.875 C 109.339844 -172.214844 109.609375 -172.503906 109.765625 -172.742188 C 109.800781 -172.796875 109.824219 -172.832031 109.832031 -172.851562 C 109.808594 -172.785156 109.796875 -172.707031 109.796875 -172.605469 C 109.796875 -171.960938 110.046875 -171.539062 110.546875 -171.339844 C 110.414062 -171.394531 110.101562 -171.417969 109.605469 -171.417969 C 108.699219 -171.417969 107.179688 -170.222656 105.042969 -167.832031 C 102.847656 -165.371094 101.746094 -162.976562 101.746094 -160.652344 C 101.746094 -159.878906 101.953125 -159.320312 102.371094 -158.972656 C 102.929688 -158.503906 103.902344 -158.234375 105.277344 -158.15625 L 105.160156 -156.050781 L 105.160156 -158.160156 C 115.210938 -158.160156 126.71875 -161.847656 139.679688 -169.226562 C 152.78125 -176.683594 163.804688 -185.191406 172.753906 -194.742188 C 181.472656 -204.046875 185.828125 -211.589844 185.828125 -217.367188 C 185.828125 -221.890625 181.933594 -224.152344 174.140625 -224.152344 C 155.972656 -224.152344 138.359375 -221.324219 121.304688 -215.675781 C 104.238281 -210.019531 89.609375 -202.808594 77.417969 -194.042969 C 65.171875 -185.238281 54.351562 -175.628906 44.945312 -165.214844 C 35.582031 -154.84375 28.59375 -144.746094 23.980469 -134.921875 C 19.414062 -125.191406 17.128906 -116.699219 17.128906 -109.449219 C 17.128906 -103.894531 18.4375 -99.789062 21.046875 -97.132812 C 23.648438 -94.488281 27.671875 -93.164062 33.109375 -93.164062 C 41.441406 -93.164062 51.871094 -95.519531 64.40625 -100.234375 C 77.101562 -105.007812 88.570312 -110.082031 98.8125 -115.457031 C 109.082031 -120.84375 120.730469 -127.710938 133.761719 -136.058594 C 146.816406 -144.421875 155.070312 -149.824219 158.523438 -152.261719 L 170.785156 -160.84375 L 173.664062 -157.832031 C 132.367188 -104.265625 90.457031 -51.214844 47.933594 1.324219 L 47.246094 2.175781 L 46.15625 2.101562 C 36.226562 1.457031 27.90625 -2.222656 21.195312 -8.933594 C 14.449219 -15.679688 11.074219 -24.660156 11.074219 -35.871094 C 11.074219 -39.496094 11.601562 -43.734375 12.65625 -48.582031 L 14.714844 -48.132812 L 13.226562 -46.644531 L 10.160156 -49.710938 L 11.648438 -51.199219 L 11.648438 -49.089844 C 11.855469 -49.089844 12.03125 -49.132812 12.175781 -49.21875 L 12.195312 -49.230469 C 12.167969 -49.207031 12.136719 -49.175781 12.097656 -49.132812 C 11.828125 -48.828125 11.519531 -48.316406 11.171875 -47.597656 C 10.355469 -45.917969 9.453125 -43.347656 8.464844 -39.886719 C 3 -20.863281 0.269531 -2.050781 0.269531 16.554688 C 0.269531 25.980469 1.234375 32.988281 3.167969 37.582031 C 4.851562 41.574219 7.269531 43.574219 10.425781 43.574219 C 12.0625 43.574219 14.207031 42.160156 16.855469 39.335938 L 18.394531 40.777344 L 16.820312 39.375 L 49.546875 2.59375 L 50.347656 2.503906 C 60.960938 1.300781 74.089844 -2.828125 89.726562 -9.890625 C 105.464844 -17 120.234375 -25.121094 134.039062 -34.257812 Z M 134.074219 -34.277344 "/></g></g></g><g fill="#ffffff" fill-opacity="1"><g transform="translate(412.25583, 593.911267)"><g><path d="M 102.96875 -36.644531 L 103.371094 -31.425781 L 102.339844 -30.742188 C 69.078125 -8.636719 48.660156 2.414062 41.082031 2.414062 C 39.824219 2.414062 38.828125 1.992188 38.101562 1.140625 C 37.457031 0.390625 37.136719 -0.605469 37.136719 -1.839844 C 37.136719 -6.410156 38.824219 -12.808594 42.199219 -21.035156 L 44.148438 -20.234375 L 42.164062 -20.945312 L 43.695312 -25.234375 L 45.679688 -24.527344 L 43.574219 -24.527344 C 43.574219 -23.914062 43.835938 -23.457031 44.367188 -23.15625 C 44.480469 -23.089844 44.585938 -23.050781 44.683594 -23.03125 C 44.679688 -23.03125 44.652344 -23.03125 44.609375 -23.03125 C 44.816406 -23.03125 44.996094 -23.058594 45.148438 -23.117188 C 45.132812 -23.113281 45.097656 -23.09375 45.039062 -23.066406 C 44.839844 -22.964844 44.550781 -22.800781 44.183594 -22.574219 C 43.378906 -22.082031 42.242188 -21.335938 40.777344 -20.335938 C 37.804688 -18.300781 33.515625 -15.246094 27.914062 -11.171875 C 16.511719 -2.726562 8.894531 1.496094 5.058594 1.496094 C 0.28125 1.496094 -2.109375 -2.273438 -2.109375 -9.8125 C -2.109375 -27.433594 7.800781 -44.527344 27.621094 -61.09375 C 47.328125 -77.570312 71.027344 -85.804688 98.71875 -85.804688 C 100.457031 -85.804688 101.824219 -85.386719 102.828125 -84.550781 C 103.949219 -83.617188 104.507812 -82.3125 104.507812 -80.632812 C 104.507812 -79.113281 101.949219 -75.183594 96.835938 -68.847656 C 92.011719 -62.867188 84.789062 -54.425781 75.160156 -43.519531 C 65.597656 -32.683594 58.433594 -24.007812 53.667969 -17.496094 C 49.136719 -11.300781 46.871094 -7.308594 46.871094 -5.519531 C 46.871094 -5.863281 46.710938 -6.140625 46.390625 -6.351562 C 46.324219 -6.394531 46.28125 -6.421875 46.253906 -6.425781 C 46.332031 -6.410156 46.449219 -6.398438 46.601562 -6.398438 C 47.449219 -6.398438 52.3125 -8.964844 61.183594 -14.089844 C 70.347656 -19.382812 79.003906 -24.679688 87.148438 -29.972656 L 102.695312 -40.210938 Z M 98.765625 -36.320312 L 100.867188 -36.484375 L 102.027344 -34.722656 L 89.445312 -26.4375 C 81.238281 -21.105469 72.519531 -15.769531 63.292969 -10.4375 C 53.765625 -4.9375 48.203125 -2.183594 46.601562 -2.183594 C 45.5625 -2.183594 44.710938 -2.40625 44.050781 -2.84375 C 43.121094 -3.464844 42.652344 -4.359375 42.652344 -5.519531 C 42.652344 -10.546875 52.4375 -24.144531 72 -46.308594 C 81.585938 -57.171875 88.769531 -65.566406 93.554688 -71.492188 C 95.921875 -74.429688 97.691406 -76.746094 98.863281 -78.445312 C 99.417969 -79.25 99.824219 -79.902344 100.089844 -80.394531 C 100.191406 -80.589844 100.265625 -80.746094 100.308594 -80.859375 L 100.316406 -80.875 C 100.300781 -80.804688 100.292969 -80.722656 100.292969 -80.632812 C 100.292969 -80.996094 100.238281 -81.222656 100.128906 -81.3125 C 99.90625 -81.496094 99.4375 -81.589844 98.71875 -81.589844 C 72.046875 -81.589844 49.246094 -73.679688 30.324219 -57.859375 C 11.511719 -42.132812 2.109375 -26.117188 2.109375 -9.8125 C 2.109375 -5.085938 3.089844 -2.722656 5.058594 -2.722656 C 7.96875 -2.722656 14.757812 -6.675781 25.433594 -14.582031 C 31.070312 -18.679688 35.390625 -21.757812 38.398438 -23.8125 C 41.746094 -26.101562 43.816406 -27.246094 44.609375 -27.246094 C 45.339844 -27.246094 45.957031 -27.105469 46.457031 -26.816406 C 47.34375 -26.308594 47.789062 -25.546875 47.789062 -24.527344 L 47.789062 -24.160156 L 46.117188 -19.480469 L 46.097656 -19.433594 C 42.933594 -11.71875 41.351562 -5.855469 41.351562 -1.839844 C 41.351562 -1.679688 41.363281 -1.558594 41.382812 -1.480469 C 41.375 -1.507812 41.351562 -1.546875 41.304688 -1.601562 C 41.226562 -1.691406 41.140625 -1.753906 41.042969 -1.792969 L 41.082031 -1.800781 C 47.8125 -1.800781 67.453125 -12.617188 100.007812 -34.253906 L 101.171875 -32.496094 L 99.070312 -32.335938 Z M 50.839844 -37.851562 C 54.203125 -40.421875 60.84375 -47.378906 70.769531 -58.71875 C 75.742188 -64.402344 79.464844 -68.886719 81.9375 -72.167969 C 84.160156 -75.113281 85.269531 -76.808594 85.269531 -77.257812 C 85.269531 -76.800781 85.453125 -76.476562 85.820312 -76.292969 C 85.707031 -76.351562 85.410156 -76.378906 84.925781 -76.378906 C 75.964844 -76.378906 65.429688 -72.160156 53.324219 -63.726562 C 41.027344 -55.160156 30.601562 -45.4375 22.042969 -34.566406 C 13.660156 -23.914062 9.464844 -15.457031 9.464844 -9.199219 C 9.464844 -9.117188 9.46875 -9.074219 9.472656 -9.058594 C 9.445312 -9.144531 9.390625 -9.226562 9.308594 -9.308594 C 9.226562 -9.390625 9.144531 -9.445312 9.058594 -9.472656 C 9.074219 -9.46875 9.117188 -9.464844 9.199219 -9.464844 C 10.058594 -9.464844 11.710938 -10.144531 14.152344 -11.5 C 16.851562 -13 20.164062 -15.109375 24.09375 -17.828125 C 28.070312 -20.582031 31.484375 -22.976562 34.339844 -25.015625 L 35.5625 -23.300781 L 34.300781 -24.988281 C 44.03125 -32.285156 49.472656 -36.511719 50.628906 -37.667969 L 50.726562 -37.765625 Z M 53.398438 -34.503906 L 52.121094 -36.175781 L 53.609375 -34.6875 C 52.3125 -33.390625 46.71875 -29.03125 36.828125 -21.613281 L 36.808594 -21.597656 L 36.789062 -21.585938 C 33.917969 -19.535156 30.488281 -17.128906 26.492188 -14.363281 C 22.449219 -11.5625 19.019531 -9.382812 16.199219 -7.816406 C 13.121094 -6.105469 10.789062 -5.25 9.199219 -5.25 C 8.003906 -5.25 7.046875 -5.609375 6.328125 -6.328125 C 5.609375 -7.046875 5.25 -8.003906 5.25 -9.199219 C 5.25 -16.429688 9.742188 -25.753906 18.730469 -37.175781 C 27.546875 -48.375 38.273438 -58.378906 50.914062 -67.183594 C 63.746094 -76.125 75.082031 -80.59375 84.925781 -80.59375 C 87.964844 -80.59375 89.484375 -79.480469 89.484375 -77.257812 C 89.484375 -75.871094 88.089844 -73.324219 85.304688 -69.628906 C 82.769531 -66.265625 78.980469 -61.703125 73.941406 -55.941406 C 63.832031 -44.390625 56.984375 -37.246094 53.398438 -34.503906 Z M 53.398438 -34.503906 "/></g></g></g><g fill="#ffffff" fill-opacity="1"><g transform="translate(498.099116, 593.911267)"><g><path d="M 105.199219 -47.082031 L 109.332031 -42.433594 L 107.175781 -41.121094 C 97.792969 -35.410156 90.148438 -30.621094 84.238281 -26.75 C 77.960938 -22.636719 73.078125 -20.578125 69.59375 -20.578125 C 66.824219 -20.578125 64.679688 -21.234375 63.160156 -22.546875 C 61.546875 -23.9375 60.742188 -25.925781 60.742188 -28.511719 C 60.742188 -31.628906 62.371094 -37.546875 65.628906 -46.265625 C 68.789062 -54.734375 70.984375 -60.703125 72.207031 -64.164062 L 74.195312 -63.464844 L 72.703125 -61.972656 L 71.785156 -62.890625 L 73.273438 -64.382812 L 73.273438 -62.273438 C 72.949219 -62.273438 72.46875 -62.019531 71.832031 -61.511719 C 51.234375 -44.992188 37.941406 -33.890625 31.957031 -28.210938 C 25.980469 -22.535156 20.203125 -16.457031 14.628906 -9.96875 L 5.433594 0.757812 C 4.894531 1.40625 4.5 1.855469 4.25 2.105469 C 3.226562 3.128906 0.632812 3.640625 -3.527344 3.640625 C -5.433594 3.640625 -6.894531 3.554688 -7.90625 3.378906 C -9.96875 3.027344 -11 2.105469 -11 0.613281 L -11 -0.0234375 L -10.644531 -0.554688 C -10.175781 -1.261719 -7.554688 -4.207031 -2.777344 -9.398438 C 8.636719 -21.832031 18.925781 -33.753906 28.09375 -45.160156 L 29.738281 -43.839844 L 30.804688 -42.023438 L 21.914062 -36.8125 C 12.554688 -31.117188 5.742188 -26.84375 1.476562 -24 L -0.757812 -22.511719 L -3.480469 -29.996094 L 17.265625 -43.167969 C 24.085938 -47.582031 29.949219 -52.191406 34.855469 -56.996094 C 39.734375 -61.777344 43.046875 -65.621094 44.792969 -68.53125 C 46.660156 -71.640625 48.320312 -74.238281 49.78125 -76.320312 C 51.628906 -78.964844 53.535156 -80.285156 55.492188 -80.285156 C 57.074219 -80.285156 59.347656 -79.488281 62.316406 -77.890625 L 63.425781 -77.292969 L 63.425781 -76.03125 C 63.425781 -73.578125 61.679688 -69.621094 58.1875 -64.167969 C 54.875 -58.992188 51.5625 -54.335938 48.246094 -50.1875 L 48.230469 -50.167969 L 43.308594 -44.324219 L 41.695312 -45.679688 L 43.804688 -45.679688 C 43.804688 -45.808594 43.753906 -45.96875 43.65625 -46.164062 C 43.320312 -46.839844 42.769531 -47.175781 42.003906 -47.175781 C 42.085938 -47.175781 42.339844 -47.359375 42.761719 -47.726562 C 43.589844 -48.453125 47.027344 -51.328125 53.070312 -56.347656 C 59.113281 -61.363281 64.386719 -65.664062 68.894531 -69.25 C 73.480469 -72.898438 78.734375 -76.386719 84.660156 -79.710938 C 90.804688 -83.160156 95.390625 -84.886719 98.414062 -84.886719 C 102.476562 -84.886719 104.507812 -83.570312 104.507812 -80.9375 C 104.507812 -79.386719 102.953125 -77.53125 99.84375 -75.375 C 97.273438 -73.589844 93.445312 -71.347656 88.363281 -68.652344 C 86.554688 -67.664062 83.445312 -62.128906 79.039062 -52.042969 C 74.554688 -41.785156 72.316406 -34.351562 72.316406 -29.738281 C 72.316406 -30.078125 72.183594 -30.316406 71.917969 -30.453125 C 72.097656 -30.359375 72.496094 -30.3125 73.121094 -30.3125 C 74.648438 -30.3125 78.101562 -32.042969 83.476562 -35.496094 L 104.015625 -48.417969 Z M 102.050781 -44.28125 L 103.625 -45.679688 L 104.746094 -43.898438 L 85.757812 -31.949219 C 79.6875 -28.050781 75.476562 -26.097656 73.121094 -26.097656 C 69.773438 -26.097656 68.101562 -27.3125 68.101562 -29.738281 C 68.101562 -34.9375 70.457031 -42.933594 75.175781 -53.730469 C 79.964844 -64.695312 83.703125 -70.914062 86.386719 -72.375 C 91.324219 -74.996094 95.007812 -77.148438 97.441406 -78.839844 C 98.585938 -79.628906 99.421875 -80.300781 99.953125 -80.84375 C 100.152344 -81.042969 100.285156 -81.203125 100.355469 -81.320312 C 100.3125 -81.25 100.292969 -81.121094 100.292969 -80.9375 C 100.292969 -80.652344 100.367188 -80.472656 100.519531 -80.402344 C 100.136719 -80.582031 99.433594 -80.671875 98.414062 -80.671875 C 96.125 -80.671875 92.226562 -79.125 86.722656 -76.035156 C 80.996094 -72.820312 75.929688 -69.457031 71.519531 -65.953125 C 67.035156 -62.382812 61.785156 -58.101562 55.765625 -53.105469 C 49.75 -48.109375 46.339844 -45.257812 45.535156 -44.554688 C 44.320312 -43.492188 43.144531 -42.960938 42.003906 -42.960938 C 41.03125 -42.960938 40.328125 -43.398438 39.886719 -44.277344 C 39.6875 -44.675781 39.585938 -45.144531 39.585938 -45.679688 L 39.585938 -46.449219 L 44.988281 -52.863281 L 46.601562 -51.507812 L 44.953125 -52.824219 C 48.179688 -56.851562 51.40625 -61.390625 54.636719 -66.4375 C 57.683594 -71.203125 59.210938 -74.398438 59.210938 -76.03125 L 61.316406 -76.03125 L 60.316406 -74.175781 C 57.972656 -75.441406 56.363281 -76.070312 55.492188 -76.070312 C 54.996094 -76.070312 54.246094 -75.347656 53.234375 -73.90625 C 51.832031 -71.902344 50.222656 -69.386719 48.410156 -66.363281 C 46.476562 -63.144531 42.941406 -59.019531 37.804688 -53.984375 C 32.695312 -48.980469 26.601562 -44.1875 19.523438 -39.609375 L 0.210938 -27.347656 L -0.917969 -29.125 L 1.0625 -29.847656 L 2.289062 -26.472656 L 0.304688 -25.753906 L -0.863281 -27.507812 C 3.453125 -30.382812 10.335938 -34.699219 19.78125 -40.449219 L 28.671875 -45.660156 L 31.382812 -42.519531 C 22.15625 -31.039062 11.804688 -19.046875 0.324219 -6.542969 C -4.300781 -1.515625 -6.789062 1.261719 -7.136719 1.78125 L -8.890625 0.613281 L -6.78125 0.613281 C -6.78125 -0.0898438 -7.050781 -0.582031 -7.589844 -0.859375 C -7.558594 -0.84375 -7.425781 -0.816406 -7.195312 -0.773438 C -6.417969 -0.640625 -5.195312 -0.574219 -3.527344 -0.574219 C -1.839844 -0.574219 -0.523438 -0.644531 0.421875 -0.78125 C 0.820312 -0.839844 1.125 -0.90625 1.34375 -0.980469 C 1.398438 -1 1.433594 -1.011719 1.449219 -1.023438 C 1.394531 -0.992188 1.335938 -0.945312 1.269531 -0.878906 C 1.429688 -1.035156 1.75 -1.40625 2.230469 -1.984375 L 11.429688 -12.71875 C 17.097656 -19.3125 22.972656 -25.496094 29.054688 -31.269531 C 35.125 -37.03125 48.507812 -48.210938 69.199219 -64.800781 C 70.605469 -65.929688 71.964844 -66.492188 73.273438 -66.492188 L 74.148438 -66.492188 L 76.625 -64.015625 L 76.179688 -62.761719 C 74.949219 -59.273438 72.75 -53.285156 69.578125 -44.789062 C 66.496094 -36.546875 64.957031 -31.121094 64.957031 -28.511719 C 64.957031 -27.214844 65.277344 -26.289062 65.914062 -25.738281 C 66.640625 -25.109375 67.871094 -24.796875 69.59375 -24.796875 C 72.242188 -24.796875 76.351562 -26.621094 81.929688 -30.277344 C 87.875 -34.171875 95.558594 -38.988281 104.980469 -44.722656 L 106.078125 -42.921875 L 104.503906 -41.519531 Z M 102.050781 -44.28125 "/></g></g></g><g fill="#ffffff" fill-opacity="1"><g transform="translate(571.679017, 593.911267)"><g><path d="M 52.464844 -53.957031 C 52.464844 -55.753906 53.0625 -57.730469 54.261719 -59.886719 C 55.6875 -62.449219 57.320312 -63.730469 59.171875 -63.730469 C 61.007812 -63.730469 62.539062 -62.660156 63.761719 -60.523438 L 61.929688 -59.476562 L 60.628906 -61.136719 C 71.535156 -69.707031 76.992188 -75.796875 76.992188 -79.40625 C 76.992188 -78.917969 77.203125 -78.542969 77.632812 -78.289062 C 77.710938 -78.238281 77.777344 -78.210938 77.824219 -78.199219 C 77.769531 -78.210938 77.683594 -78.21875 77.566406 -78.21875 C 71.519531 -78.21875 62.96875 -73.773438 51.90625 -64.886719 C 40.601562 -55.800781 30.554688 -45.351562 21.773438 -33.539062 C 13.160156 -21.957031 8.851562 -12.921875 8.851562 -6.4375 C 8.851562 -6.101562 8.878906 -5.90625 8.925781 -5.859375 C 8.972656 -5.8125 9.167969 -5.785156 9.503906 -5.785156 C 16.664062 -5.785156 31.210938 -12.628906 53.148438 -26.316406 L 74.488281 -40.1875 L 75.164062 -31.402344 L 74.101562 -30.722656 C 68.988281 -27.449219 63.15625 -23.765625 56.609375 -19.671875 C 32.554688 -4.742188 15.730469 2.722656 6.132812 2.722656 C 0.636719 2.722656 -2.109375 -2.273438 -2.109375 -12.261719 C -2.109375 -21.3125 2.21875 -31.691406 10.875 -43.40625 C 19.402344 -54.953125 30.105469 -64.980469 42.984375 -73.5 C 56.011719 -82.113281 67.945312 -86.417969 78.792969 -86.417969 C 81.328125 -86.417969 83.300781 -85.855469 84.707031 -84.730469 C 86.257812 -83.492188 87.03125 -81.714844 87.03125 -79.40625 C 87.03125 -74.34375 83.3125 -67.929688 75.867188 -60.164062 C 68.402344 -52.375 62.835938 -48.480469 59.171875 -48.480469 C 57.179688 -48.480469 55.613281 -48.894531 54.476562 -49.730469 C 53.132812 -50.714844 52.464844 -52.121094 52.464844 -53.957031 Z M 56.679688 -53.957031 C 56.679688 -53.546875 56.777344 -53.269531 56.96875 -53.128906 C 57.363281 -52.839844 58.097656 -52.695312 59.171875 -52.695312 C 61.636719 -52.695312 66.1875 -56.15625 72.824219 -63.082031 C 79.484375 -70.03125 82.816406 -75.472656 82.816406 -79.40625 C 82.816406 -80.363281 82.570312 -81.042969 82.074219 -81.4375 C 81.4375 -81.949219 80.34375 -82.203125 78.792969 -82.203125 C 68.792969 -82.203125 57.628906 -78.128906 45.3125 -69.984375 C 32.847656 -61.738281 22.496094 -52.046875 14.265625 -40.902344 C 6.160156 -29.929688 2.109375 -20.386719 2.109375 -12.261719 C 2.109375 -5.085938 3.449219 -1.496094 6.132812 -1.496094 C 14.929688 -1.496094 31.007812 -8.746094 54.375 -23.25 C 60.910156 -27.332031 66.726562 -31.007812 71.832031 -34.273438 L 72.96875 -32.496094 L 70.867188 -32.335938 L 70.558594 -36.320312 L 72.660156 -36.484375 L 73.808594 -34.714844 L 55.382812 -22.738281 C 32.761719 -8.625 17.46875 -1.570312 9.503906 -1.570312 C 8.003906 -1.570312 6.816406 -2.007812 5.945312 -2.878906 C 5.074219 -3.75 4.636719 -4.9375 4.636719 -6.4375 C 4.636719 -13.851562 9.222656 -23.726562 18.390625 -36.054688 C 27.386719 -48.15625 37.679688 -58.863281 49.265625 -68.171875 C 61.097656 -77.679688 70.53125 -82.433594 77.566406 -82.433594 C 78.464844 -82.433594 79.210938 -82.257812 79.800781 -81.902344 C 80.738281 -81.339844 81.207031 -80.507812 81.207031 -79.40625 C 81.207031 -74.429688 75.214844 -67.234375 63.234375 -57.820312 L 61.3125 -56.3125 L 60.101562 -58.429688 C 59.6875 -59.152344 59.378906 -59.515625 59.171875 -59.515625 C 59.21875 -59.515625 59.25 -59.519531 59.269531 -59.527344 C 59.214844 -59.503906 59.140625 -59.449219 59.046875 -59.367188 C 58.710938 -59.0625 58.34375 -58.554688 57.949219 -57.839844 C 57.101562 -56.320312 56.679688 -55.027344 56.679688 -53.957031 Z M 56.679688 -53.957031 "/></g></g></g><g fill="#ffffff" fill-opacity="1"><g transform="translate(629.316502, 593.911267)"><g><path d="M 93.203125 -119.835938 C 95.074219 -119.835938 96.527344 -119.234375 97.5625 -118.027344 C 98.511719 -116.917969 98.988281 -115.386719 98.988281 -113.4375 C 98.988281 -111.164062 96.855469 -108.882812 92.589844 -106.597656 C 88.957031 -104.648438 83.558594 -102.480469 76.394531 -100.09375 C 62.074219 -95.320312 54.085938 -92.933594 52.425781 -92.933594 C 49.589844 -92.933594 48.171875 -93.839844 48.171875 -95.65625 C 48.171875 -97.460938 49.355469 -98.789062 51.71875 -99.632812 C 53.042969 -100.105469 55.242188 -101.183594 58.3125 -102.867188 C 61.464844 -104.597656 65.589844 -106.9375 70.683594 -109.894531 C 75.832031 -112.878906 80.875 -115.609375 85.820312 -118.082031 L 85.910156 -118.125 L 86.007812 -118.164062 C 88.90625 -119.277344 91.304688 -119.835938 93.203125 -119.835938 Z M 93.203125 -115.621094 C 91.828125 -115.621094 89.933594 -115.15625 87.519531 -114.226562 L 86.761719 -116.195312 L 87.707031 -114.308594 C 82.839844 -111.878906 77.871094 -109.191406 72.796875 -106.246094 C 67.675781 -103.277344 63.519531 -100.917969 60.335938 -99.171875 C 57.070312 -97.378906 54.671875 -96.210938 53.136719 -95.660156 C 52.691406 -95.503906 52.398438 -95.355469 52.25 -95.222656 C 52.34375 -95.304688 52.386719 -95.449219 52.386719 -95.65625 C 52.386719 -96.199219 52.1875 -96.644531 51.785156 -96.988281 C 51.640625 -97.109375 51.511719 -97.1875 51.394531 -97.222656 C 51.5625 -97.171875 51.90625 -97.148438 52.425781 -97.148438 C 53.628906 -97.148438 61.171875 -99.464844 75.058594 -104.09375 C 81.996094 -106.40625 87.175781 -108.476562 90.597656 -110.3125 C 92.195312 -111.167969 93.367188 -111.949219 94.113281 -112.652344 C 94.554688 -113.066406 94.773438 -113.328125 94.773438 -113.4375 C 94.773438 -114.347656 94.636719 -114.964844 94.359375 -115.285156 C 94.167969 -115.507812 93.78125 -115.621094 93.203125 -115.621094 Z M 63.726562 -78.222656 C 55.585938 -70.078125 43.046875 -56.316406 26.113281 -36.9375 C 17.660156 -27.261719 11.328125 -19.679688 7.113281 -14.199219 C 3.164062 -9.058594 1.1875 -6.0625 1.1875 -5.210938 C 1.1875 -5.617188 1.011719 -5.921875 0.664062 -6.121094 L 0.683594 -6.132812 C 0.820312 -6.105469 1 -6.09375 1.226562 -6.09375 C 3.472656 -6.09375 16.988281 -14.054688 41.78125 -29.980469 L 57.320312 -40.210938 L 57.996094 -31.425781 L 56.964844 -30.742188 C 23.703125 -8.636719 3.285156 2.414062 -4.292969 2.414062 C -6.304688 2.414062 -7.820312 1.582031 -8.847656 -0.0820312 C -9.667969 -1.417969 -10.078125 -3.28125 -10.078125 -5.671875 C -10.078125 -10.121094 -3.757812 -20.863281 8.882812 -37.894531 C 21.308594 -54.628906 34.503906 -70.085938 48.472656 -84.257812 L 49.972656 -82.777344 L 48.285156 -84.042969 C 49.933594 -86.238281 51.824219 -87.339844 53.957031 -87.339844 L 54.675781 -87.339844 L 61.0625 -86.714844 C 64.476562 -86.390625 66.183594 -85.230469 66.183594 -83.238281 C 66.183594 -82.054688 65.429688 -80.457031 63.921875 -78.449219 L 63.832031 -78.328125 Z M 60.746094 -81.203125 L 62.238281 -79.710938 L 60.550781 -80.976562 C 61.496094 -82.238281 61.96875 -82.992188 61.96875 -83.238281 C 61.96875 -82.871094 62.085938 -82.5625 62.316406 -82.304688 C 62.371094 -82.246094 62.425781 -82.199219 62.472656 -82.167969 L 62.441406 -82.183594 C 62.105469 -82.324219 61.511719 -82.4375 60.652344 -82.519531 L 54.367188 -83.132812 L 54.570312 -85.230469 L 54.570312 -83.121094 L 53.957031 -83.121094 C 53.230469 -83.121094 52.464844 -82.585938 51.660156 -81.511719 L 51.574219 -81.398438 L 51.476562 -81.296875 C 37.644531 -67.265625 24.578125 -51.960938 12.269531 -35.378906 C 0.179688 -19.09375 -5.863281 -9.191406 -5.863281 -5.671875 C -5.863281 -3.089844 -5.339844 -1.800781 -4.292969 -1.800781 C 2.4375 -1.800781 22.078125 -12.617188 54.632812 -34.253906 L 55.796875 -32.496094 L 53.695312 -32.335938 L 53.390625 -36.320312 L 55.492188 -36.484375 L 56.652344 -34.722656 L 44.0625 -26.433594 C 18.574219 -10.0625 4.296875 -1.878906 1.226562 -1.878906 C 0.136719 -1.878906 -0.746094 -2.074219 -1.429688 -2.460938 C -2.496094 -3.070312 -3.027344 -3.988281 -3.027344 -5.210938 C -3.027344 -7.019531 -0.761719 -10.871094 3.769531 -16.765625 C 8.039062 -22.320312 14.429688 -29.96875 22.9375 -39.710938 C 39.933594 -59.164062 52.539062 -72.992188 60.746094 -81.203125 Z M 60.746094 -81.203125 "/></g></g></g><g fill="#ffffff" fill-opacity="1"><g transform="translate(670.09186, 593.911267)"><g><path d="M 102.96875 -36.644531 L 103.371094 -31.425781 L 102.339844 -30.742188 C 69.078125 -8.636719 48.660156 2.414062 41.082031 2.414062 C 39.824219 2.414062 38.828125 1.992188 38.101562 1.140625 C 37.457031 0.390625 37.136719 -0.605469 37.136719 -1.839844 C 37.136719 -6.410156 38.824219 -12.808594 42.199219 -21.035156 L 44.148438 -20.234375 L 42.164062 -20.945312 L 43.695312 -25.234375 L 45.679688 -24.527344 L 43.574219 -24.527344 C 43.574219 -23.914062 43.835938 -23.457031 44.367188 -23.15625 C 44.480469 -23.089844 44.585938 -23.050781 44.683594 -23.03125 C 44.679688 -23.03125 44.652344 -23.03125 44.609375 -23.03125 C 44.816406 -23.03125 44.996094 -23.058594 45.148438 -23.117188 C 45.132812 -23.113281 45.097656 -23.09375 45.039062 -23.066406 C 44.839844 -22.964844 44.550781 -22.800781 44.183594 -22.574219 C 43.378906 -22.082031 42.242188 -21.335938 40.777344 -20.335938 C 37.804688 -18.300781 33.515625 -15.246094 27.914062 -11.171875 C 16.511719 -2.726562 8.894531 1.496094 5.058594 1.496094 C 0.28125 1.496094 -2.109375 -2.273438 -2.109375 -9.8125 C -2.109375 -27.433594 7.800781 -44.527344 27.621094 -61.09375 C 47.328125 -77.570312 71.027344 -85.804688 98.71875 -85.804688 C 100.457031 -85.804688 101.824219 -85.386719 102.828125 -84.550781 C 103.949219 -83.617188 104.507812 -82.3125 104.507812 -80.632812 C 104.507812 -79.113281 101.949219 -75.183594 96.835938 -68.847656 C 92.011719 -62.867188 84.789062 -54.425781 75.160156 -43.519531 C 65.597656 -32.683594 58.433594 -24.007812 53.667969 -17.496094 C 49.136719 -11.300781 46.871094 -7.308594 46.871094 -5.519531 C 46.871094 -5.863281 46.710938 -6.140625 46.390625 -6.351562 C 46.324219 -6.394531 46.28125 -6.421875 46.253906 -6.425781 C 46.332031 -6.410156 46.449219 -6.398438 46.601562 -6.398438 C 47.449219 -6.398438 52.3125 -8.964844 61.183594 -14.089844 C 70.347656 -19.382812 79.003906 -24.679688 87.148438 -29.972656 L 102.695312 -40.210938 Z M 98.765625 -36.320312 L 100.867188 -36.484375 L 102.027344 -34.722656 L 89.445312 -26.4375 C 81.238281 -21.105469 72.519531 -15.769531 63.292969 -10.4375 C 53.765625 -4.9375 48.203125 -2.183594 46.601562 -2.183594 C 45.5625 -2.183594 44.710938 -2.40625 44.050781 -2.84375 C 43.121094 -3.464844 42.652344 -4.359375 42.652344 -5.519531 C 42.652344 -10.546875 52.4375 -24.144531 72 -46.308594 C 81.585938 -57.171875 88.769531 -65.566406 93.554688 -71.492188 C 95.921875 -74.429688 97.691406 -76.746094 98.863281 -78.445312 C 99.417969 -79.25 99.824219 -79.902344 100.089844 -80.394531 C 100.191406 -80.589844 100.265625 -80.746094 100.308594 -80.859375 L 100.316406 -80.875 C 100.300781 -80.804688 100.292969 -80.722656 100.292969 -80.632812 C 100.292969 -80.996094 100.238281 -81.222656 100.128906 -81.3125 C 99.90625 -81.496094 99.4375 -81.589844 98.71875 -81.589844 C 72.046875 -81.589844 49.246094 -73.679688 30.324219 -57.859375 C 11.511719 -42.132812 2.109375 -26.117188 2.109375 -9.8125 C 2.109375 -5.085938 3.089844 -2.722656 5.058594 -2.722656 C 7.96875 -2.722656 14.757812 -6.675781 25.433594 -14.582031 C 31.070312 -18.679688 35.390625 -21.757812 38.398438 -23.8125 C 41.746094 -26.101562 43.816406 -27.246094 44.609375 -27.246094 C 45.339844 -27.246094 45.957031 -27.105469 46.457031 -26.816406 C 47.34375 -26.308594 47.789062 -25.546875 47.789062 -24.527344 L 47.789062 -24.160156 L 46.117188 -19.480469 L 46.097656 -19.433594 C 42.933594 -11.71875 41.351562 -5.855469 41.351562 -1.839844 C 41.351562 -1.679688 41.363281 -1.558594 41.382812 -1.480469 C 41.375 -1.507812 41.351562 -1.546875 41.304688 -1.601562 C 41.226562 -1.691406 41.140625 -1.753906 41.042969 -1.792969 L 41.082031 -1.800781 C 47.8125 -1.800781 67.453125 -12.617188 100.007812 -34.253906 L 101.171875 -32.496094 L 99.070312 -32.335938 Z M 50.839844 -37.851562 C 54.203125 -40.421875 60.84375 -47.378906 70.769531 -58.71875 C 75.742188 -64.402344 79.464844 -68.886719 81.9375 -72.167969 C 84.160156 -75.113281 85.269531 -76.808594 85.269531 -77.257812 C 85.269531 -76.800781 85.453125 -76.476562 85.820312 -76.292969 C 85.707031 -76.351562 85.410156 -76.378906 84.925781 -76.378906 C 75.964844 -76.378906 65.429688 -72.160156 53.324219 -63.726562 C 41.027344 -55.160156 30.601562 -45.4375 22.042969 -34.566406 C 13.660156 -23.914062 9.464844 -15.457031 9.464844 -9.199219 C 9.464844 -9.117188 9.46875 -9.074219 9.472656 -9.058594 C 9.445312 -9.144531 9.390625 -9.226562 9.308594 -9.308594 C 9.226562 -9.390625 9.144531 -9.445312 9.058594 -9.472656 C 9.074219 -9.46875 9.117188 -9.464844 9.199219 -9.464844 C 10.058594 -9.464844 11.710938 -10.144531 14.152344 -11.5 C 16.851562 -13 20.164062 -15.109375 24.09375 -17.828125 C 28.070312 -20.582031 31.484375 -22.976562 34.339844 -25.015625 L 35.5625 -23.300781 L 34.300781 -24.988281 C 44.03125 -32.285156 49.472656 -36.511719 50.628906 -37.667969 L 50.726562 -37.765625 Z M 53.398438 -34.503906 L 52.121094 -36.175781 L 53.609375 -34.6875 C 52.3125 -33.390625 46.71875 -29.03125 36.828125 -21.613281 L 36.808594 -21.597656 L 36.789062 -21.585938 C 33.917969 -19.535156 30.488281 -17.128906 26.492188 -14.363281 C 22.449219 -11.5625 19.019531 -9.382812 16.199219 -7.816406 C 13.121094 -6.105469 10.789062 -5.25 9.199219 -5.25 C 8.003906 -5.25 7.046875 -5.609375 6.328125 -6.328125 C 5.609375 -7.046875 5.25 -8.003906 5.25 -9.199219 C 5.25 -16.429688 9.742188 -25.753906 18.730469 -37.175781 C 27.546875 -48.375 38.273438 -58.378906 50.914062 -67.183594 C 63.746094 -76.125 75.082031 -80.59375 84.925781 -80.59375 C 87.964844 -80.59375 89.484375 -79.480469 89.484375 -77.257812 C 89.484375 -75.871094 88.089844 -73.324219 85.304688 -69.628906 C 82.769531 -66.265625 78.980469 -61.703125 73.941406 -55.941406 C 63.832031 -44.390625 56.984375 -37.246094 53.398438 -34.503906 Z M 53.398438 -34.503906 "/></g></g></g><g fill="#c4622d" fill-opacity="1"><g transform="translate(292.688292, 593.911267)"><g><path d="M 14.40625 36.796875 C 15.226562 36.796875 16.757812 35.671875 19 33.421875 C 21.25 31.171875 29.117188 21.664062 42.609375 4.90625 C 34.234375 4.289062 26.875 1.484375 20.53125 -3.515625 C 14.195312 -8.523438 9.910156 -14.503906 7.671875 -21.453125 C 7.460938 -22.066406 7.203125 -22.375 6.890625 -22.375 C 6.585938 -22.375 6.179688 -19.5625 5.671875 -13.9375 C 5.160156 -8.320312 4.90625 -0.914062 4.90625 8.28125 C 4.90625 27.289062 8.070312 36.796875 14.40625 36.796875 Z M 135.203125 -32.5 C 121.304688 -23.300781 106.4375 -15.125 90.59375 -7.96875 C 74.75 -0.8125 61.410156 3.375 50.578125 4.59375 L 18.390625 40.78125 C 15.328125 44.050781 12.671875 45.6875 10.421875 45.6875 C 2.242188 45.6875 -1.84375 35.976562 -1.84375 16.5625 C -1.84375 -2.25 0.914062 -21.257812 6.4375 -40.46875 C 8.476562 -47.625 10.21875 -51.203125 11.65625 -51.203125 L 14.71875 -48.125 C 13.695312 -43.425781 13.1875 -39.34375 13.1875 -35.875 C 13.1875 -25.238281 16.351562 -16.753906 22.6875 -10.421875 C 29.019531 -4.085938 36.890625 -0.613281 46.296875 0 C 88.804688 -52.53125 130.703125 -105.566406 171.984375 -159.109375 C 167.285156 -155.835938 163.195312 -152.972656 159.71875 -150.515625 C 156.25 -148.066406 147.972656 -142.65625 134.890625 -134.28125 C 121.804688 -125.90625 110.101562 -119.007812 99.78125 -113.59375 C 89.46875 -108.175781 77.921875 -103.0625 65.140625 -98.25 C 52.367188 -93.445312 41.691406 -91.046875 33.109375 -91.046875 C 21.046875 -91.046875 15.015625 -97.179688 15.015625 -109.453125 C 15.015625 -117.015625 17.363281 -125.800781 22.0625 -135.8125 C 26.769531 -145.832031 33.875 -156.101562 43.375 -166.625 C 52.882812 -177.144531 63.820312 -186.851562 76.1875 -195.75 C 88.550781 -204.644531 103.367188 -211.953125 120.640625 -217.671875 C 137.910156 -223.390625 155.742188 -226.25 174.140625 -226.25 C 183.335938 -226.25 187.9375 -223.285156 187.9375 -217.359375 C 187.9375 -211.023438 183.382812 -203.003906 174.28125 -193.296875 C 165.1875 -183.585938 154 -174.953125 140.71875 -167.390625 C 127.4375 -159.828125 115.582031 -156.046875 105.15625 -156.046875 C 101.476562 -156.253906 99.640625 -157.785156 99.640625 -160.640625 C 99.640625 -163.503906 100.914062 -166.363281 103.46875 -169.21875 C 106.019531 -172.082031 108.0625 -173.515625 109.59375 -173.515625 C 111.132812 -173.515625 111.90625 -173.207031 111.90625 -172.59375 C 111.90625 -171.988281 111.390625 -171.222656 110.359375 -170.296875 C 109.335938 -169.378906 108.828125 -168.5625 108.828125 -167.84375 C 108.828125 -167.132812 109.441406 -166.78125 110.671875 -166.78125 C 118.234375 -166.78125 127.941406 -169.945312 139.796875 -176.28125 C 151.648438 -182.613281 161.972656 -189.816406 170.765625 -197.890625 C 179.554688 -205.960938 183.953125 -212.25 183.953125 -216.75 C 183.953125 -220.632812 180.578125 -222.578125 173.828125 -222.578125 C 158.703125 -222.578125 141.835938 -217.925781 123.234375 -208.625 C 104.640625 -199.320312 88.035156 -188.332031 73.421875 -175.65625 C 58.804688 -162.988281 46.488281 -150.0625 36.46875 -136.875 C 26.457031 -123.695312 21.453125 -113.328125 21.453125 -105.765625 C 21.453125 -98.617188 26.050781 -95.046875 35.25 -95.046875 C 48.738281 -95.046875 67.1875 -101.019531 90.59375 -112.96875 C 114 -124.925781 134.382812 -137.035156 151.75 -149.296875 C 169.125 -161.566406 179.242188 -169.742188 182.109375 -173.828125 C 183.535156 -175.671875 186.035156 -176.59375 189.609375 -176.59375 C 193.191406 -176.59375 194.984375 -175.566406 194.984375 -173.515625 C 194.984375 -171.472656 193.859375 -168.816406 191.609375 -165.546875 C 154.003906 -115.679688 108.425781 -60.5 54.875 0 C 75.519531 -2.445312 100.765625 -13.6875 130.609375 -33.71875 L 151.140625 -46.59375 C 152.578125 -47.414062 154.109375 -47.828125 155.734375 -47.828125 C 157.367188 -47.828125 158.1875 -47.617188 158.1875 -47.203125 C 158.1875 -46.796875 157.882812 -46.390625 157.28125 -45.984375 Z M 135.203125 -32.5 "/></g></g></g><g fill="#c4622d" fill-opacity="1"><g transform="translate(412.25583, 593.911267)"><g><path d="M 100.859375 -36.484375 L 101.171875 -32.5 C 68.265625 -10.625 48.234375 0.3125 41.078125 0.3125 C 39.847656 0.3125 39.234375 -0.40625 39.234375 -1.84375 C 39.234375 -6.132812 40.867188 -12.265625 44.140625 -20.234375 L 45.6875 -24.53125 C 45.6875 -24.9375 45.328125 -25.140625 44.609375 -25.140625 C 43.890625 -25.140625 37.910156 -21.050781 26.671875 -12.875 C 15.628906 -4.695312 8.421875 -0.609375 5.046875 -0.609375 C 1.679688 -0.609375 0 -3.675781 0 -9.8125 C 0 -26.769531 9.65625 -43.320312 28.96875 -59.46875 C 48.28125 -75.625 71.53125 -83.703125 98.71875 -83.703125 C 101.164062 -83.703125 102.390625 -82.675781 102.390625 -80.625 C 102.390625 -78.582031 92.785156 -66.675781 73.578125 -44.90625 C 54.367188 -23.144531 44.765625 -10.015625 44.765625 -5.515625 C 44.765625 -4.703125 45.375 -4.296875 46.59375 -4.296875 C 47.820312 -4.296875 53.035156 -6.953125 62.234375 -12.265625 C 71.429688 -17.578125 80.117188 -22.890625 88.296875 -28.203125 Z M 52.125 -36.171875 C 55.59375 -38.828125 62.332031 -45.878906 72.34375 -57.328125 C 82.363281 -68.773438 87.375 -75.414062 87.375 -77.25 C 87.375 -78.070312 86.554688 -78.484375 84.921875 -78.484375 C 75.515625 -78.484375 64.578125 -74.140625 52.109375 -65.453125 C 39.648438 -56.765625 29.078125 -46.898438 20.390625 -35.859375 C 11.703125 -24.828125 7.359375 -15.941406 7.359375 -9.203125 C 7.359375 -7.972656 7.96875 -7.359375 9.1875 -7.359375 C 10.414062 -7.359375 12.410156 -8.125 15.171875 -9.65625 C 17.929688 -11.1875 21.300781 -13.332031 25.28125 -16.09375 C 29.269531 -18.851562 32.695312 -21.253906 35.5625 -23.296875 C 45.375 -30.660156 50.894531 -34.953125 52.125 -36.171875 Z M 52.125 -36.171875 "/></g></g></g><g fill="#c4622d" fill-opacity="1"><g transform="translate(498.099116, 593.911267)"><g><path d="M 103.625 -45.6875 L 106.078125 -42.921875 C 96.671875 -37.203125 89.003906 -32.398438 83.078125 -28.515625 C 77.148438 -24.628906 72.65625 -22.6875 69.59375 -22.6875 C 65.09375 -22.6875 62.84375 -24.628906 62.84375 -28.515625 C 62.84375 -31.367188 64.425781 -37.035156 67.59375 -45.515625 C 70.769531 -54.003906 72.96875 -59.988281 74.1875 -63.46875 L 73.265625 -64.375 C 72.453125 -64.375 71.535156 -63.96875 70.515625 -63.15625 C 49.867188 -46.601562 36.53125 -35.460938 30.5 -29.734375 C 24.46875 -24.015625 18.640625 -17.882812 13.015625 -11.34375 C 7.398438 -4.800781 4.335938 -1.222656 3.828125 -0.609375 C 3.316406 0.00390625 2.960938 0.410156 2.765625 0.609375 C 2.148438 1.222656 0.0546875 1.53125 -3.515625 1.53125 C -7.097656 1.53125 -8.890625 1.222656 -8.890625 0.609375 C -8.484375 -0.00390625 -5.925781 -2.863281 -1.21875 -7.96875 C 10.21875 -20.4375 20.535156 -32.394531 29.734375 -43.84375 L 20.84375 -38.625 C 11.445312 -32.90625 4.601562 -28.613281 0.3125 -25.75 L -0.921875 -29.125 L 18.390625 -41.390625 C 25.335938 -45.878906 31.316406 -50.578125 36.328125 -55.484375 C 41.335938 -60.390625 44.757812 -64.375 46.59375 -67.4375 C 48.4375 -70.507812 50.070312 -73.066406 51.5 -75.109375 C 52.9375 -77.148438 54.265625 -78.171875 55.484375 -78.171875 C 56.710938 -78.171875 58.65625 -77.457031 61.3125 -76.03125 C 61.3125 -73.988281 59.675781 -70.410156 56.40625 -65.296875 C 53.132812 -60.191406 49.863281 -55.59375 46.59375 -51.5 L 41.6875 -45.6875 C 41.6875 -45.269531 41.789062 -45.0625 42 -45.0625 C 42.613281 -45.0625 43.328125 -45.421875 44.140625 -46.140625 C 44.960938 -46.859375 48.390625 -49.71875 54.421875 -54.71875 C 60.453125 -59.726562 65.710938 -64.019531 70.203125 -67.59375 C 74.703125 -71.175781 79.863281 -74.601562 85.6875 -77.875 C 91.507812 -81.144531 95.75 -82.78125 98.40625 -82.78125 C 101.0625 -82.78125 102.390625 -82.164062 102.390625 -80.9375 C 102.390625 -79.300781 97.382812 -75.828125 87.375 -70.515625 C 85.125 -69.285156 81.695312 -63.40625 77.09375 -52.875 C 72.5 -42.351562 70.203125 -34.640625 70.203125 -29.734375 C 70.203125 -28.710938 71.171875 -28.203125 73.109375 -28.203125 C 75.054688 -28.203125 78.890625 -30.039062 84.609375 -33.71875 Z M 103.625 -45.6875 "/></g></g></g><g fill="#c4622d" fill-opacity="1"><g transform="translate(571.679017, 593.911267)"><g><path d="M 54.578125 -53.953125 C 54.578125 -55.390625 55.085938 -57.023438 56.109375 -58.859375 C 57.128906 -60.703125 58.148438 -61.625 59.171875 -61.625 C 60.191406 -61.625 61.109375 -60.90625 61.921875 -59.46875 C 73.367188 -68.46875 79.09375 -75.113281 79.09375 -79.40625 C 79.09375 -80.019531 78.582031 -80.328125 77.5625 -80.328125 C 71.019531 -80.328125 62.023438 -75.726562 50.578125 -66.53125 C 39.140625 -57.332031 28.972656 -46.753906 20.078125 -34.796875 C 11.191406 -22.835938 6.75 -13.382812 6.75 -6.4375 C 6.75 -4.59375 7.664062 -3.671875 9.5 -3.671875 C 17.0625 -3.671875 31.984375 -10.625 54.265625 -24.53125 L 72.65625 -36.484375 L 72.96875 -32.5 C 67.851562 -29.226562 62.023438 -25.546875 55.484375 -21.453125 C 31.773438 -6.742188 15.320312 0.609375 6.125 0.609375 C 2.039062 0.609375 0 -3.679688 0 -12.265625 C 0 -20.847656 4.1875 -30.8125 12.5625 -42.15625 C 20.945312 -53.5 31.472656 -63.359375 44.140625 -71.734375 C 56.816406 -80.117188 68.367188 -84.3125 78.796875 -84.3125 C 82.878906 -84.3125 84.921875 -82.675781 84.921875 -79.40625 C 84.921875 -74.90625 81.394531 -68.972656 74.34375 -61.609375 C 67.289062 -54.253906 62.234375 -50.578125 59.171875 -50.578125 C 56.109375 -50.578125 54.578125 -51.703125 54.578125 -53.953125 Z M 54.578125 -53.953125 "/></g></g></g><g fill="#c4622d" fill-opacity="1"><g transform="translate(629.316502, 593.911267)"><g><path d="M 93.203125 -117.71875 C 95.648438 -117.71875 96.875 -116.285156 96.875 -113.421875 C 96.875 -110.566406 89.820312 -106.789062 75.71875 -102.09375 C 61.625 -97.394531 53.859375 -95.046875 52.421875 -95.046875 C 50.992188 -95.046875 50.28125 -95.25 50.28125 -95.65625 C 50.28125 -96.46875 50.992188 -97.128906 52.421875 -97.640625 C 53.859375 -98.148438 56.160156 -99.273438 59.328125 -101.015625 C 62.492188 -102.753906 66.628906 -105.101562 71.734375 -108.0625 C 76.847656 -111.03125 81.859375 -113.738281 86.765625 -116.1875 C 89.421875 -117.207031 91.566406 -117.71875 93.203125 -117.71875 Z M 62.234375 -79.703125 C 54.054688 -71.535156 41.484375 -57.742188 24.515625 -38.328125 C 7.554688 -18.910156 -0.921875 -7.875 -0.921875 -5.21875 C -0.921875 -4.394531 -0.207031 -3.984375 1.21875 -3.984375 C 3.882812 -3.984375 17.785156 -12.054688 42.921875 -28.203125 L 55.484375 -36.484375 L 55.796875 -32.5 C 22.890625 -10.625 2.859375 0.3125 -4.296875 0.3125 C -6.742188 0.3125 -7.96875 -1.679688 -7.96875 -5.671875 C -7.96875 -9.660156 -1.785156 -19.984375 10.578125 -36.640625 C 22.941406 -53.296875 36.070312 -68.675781 49.96875 -82.78125 C 51.195312 -84.414062 52.523438 -85.234375 53.953125 -85.234375 L 54.578125 -85.234375 C 56.617188 -85.023438 58.710938 -84.816406 60.859375 -84.609375 C 63.003906 -84.410156 64.078125 -83.953125 64.078125 -83.234375 C 64.078125 -82.515625 63.460938 -81.335938 62.234375 -79.703125 Z M 62.234375 -79.703125 "/></g></g></g><g fill="#c4622d" fill-opacity="1"><g transform="translate(670.09186, 593.911267)"><g><path d="M 100.859375 -36.484375 L 101.171875 -32.5 C 68.265625 -10.625 48.234375 0.3125 41.078125 0.3125 C 39.847656 0.3125 39.234375 -0.40625 39.234375 -1.84375 C 39.234375 -6.132812 40.867188 -12.265625 44.140625 -20.234375 L 45.6875 -24.53125 C 45.6875 -24.9375 45.328125 -25.140625 44.609375 -25.140625 C 43.890625 -25.140625 37.910156 -21.050781 26.671875 -12.875 C 15.628906 -4.695312 8.421875 -0.609375 5.046875 -0.609375 C 1.679688 -0.609375 0 -3.675781 0 -9.8125 C 0 -26.769531 9.65625 -43.320312 28.96875 -59.46875 C 48.28125 -75.625 71.53125 -83.703125 98.71875 -83.703125 C 101.164062 -83.703125 102.390625 -82.675781 102.390625 -80.625 C 102.390625 -78.582031 92.785156 -66.675781 73.578125 -44.90625 C 54.367188 -23.144531 44.765625 -10.015625 44.765625 -5.515625 C 44.765625 -4.703125 45.375 -4.296875 46.59375 -4.296875 C 47.820312 -4.296875 53.035156 -6.953125 62.234375 -12.265625 C 71.429688 -17.578125 80.117188 -22.890625 88.296875 -28.203125 Z M 52.125 -36.171875 C 55.59375 -38.828125 62.332031 -45.878906 72.34375 -57.328125 C 82.363281 -68.773438 87.375 -75.414062 87.375 -77.25 C 87.375 -78.070312 86.554688 -78.484375 84.921875 -78.484375 C 75.515625 -78.484375 64.578125 -74.140625 52.109375 -65.453125 C 39.648438 -56.765625 29.078125 -46.898438 20.390625 -35.859375 C 11.703125 -24.828125 7.359375 -15.941406 7.359375 -9.203125 C 7.359375 -7.972656 7.96875 -7.359375 9.1875 -7.359375 C 10.414062 -7.359375 12.410156 -8.125 15.171875 -9.65625 C 17.929688 -11.1875 21.300781 -13.332031 25.28125 -16.09375 C 29.269531 -18.851562 32.695312 -21.253906 35.5625 -23.296875 C 45.375 -30.660156 50.894531 -34.953125 52.125 -36.171875 Z M 52.125 -36.171875 "/></g></g></g><g clip-path="url(#f90e6e2df3)"><g transform="matrix(1, 0, 0, 1, -0.000000000000056843, 154)"><g clip-path="url(#c554c37121)"><g fill="#ffffff" fill-opacity="1"><g transform="translate(0.615928, 295.544241)"><g><path d="M 244.082031 -56.628906 C 245.128906 -58.71875 246.601562 -60.402344 248.503906 -61.667969 C 250.644531 -63.097656 253.015625 -63.808594 255.613281 -63.808594 C 257.695312 -63.808594 259.804688 -63.277344 261.9375 -62.207031 L 263.628906 -61.363281 L 264.964844 -60.027344 C 267.097656 -57.894531 268.398438 -55.417969 268.871094 -52.589844 C 269.4375 -49.1875 268.742188 -46.027344 266.792969 -43.097656 L 266.613281 -42.828125 L 266.417969 -42.570312 C 252.644531 -24.203125 235.554688 -9.953125 215.148438 0.183594 C 194.761719 10.308594 173.222656 15.371094 150.535156 15.371094 L 146.648438 15.371094 L 146.488281 15.367188 C 127.078125 14.828125 108.789062 10.773438 91.621094 3.203125 C 74.480469 -4.355469 59.425781 -14.753906 46.457031 -27.996094 C 33.472656 -41.25 23.402344 -56.585938 16.242188 -74.011719 C 9.078125 -91.449219 5.496094 -110.003906 5.496094 -129.671875 C 5.496094 -149.347656 9.082031 -167.847656 16.257812 -185.171875 C 23.414062 -202.460938 33.480469 -217.726562 46.457031 -230.972656 C 59.40625 -244.191406 74.441406 -254.644531 91.554688 -262.324219 C 108.792969 -270.0625 127.15625 -274.066406 146.648438 -274.335938 L 150.535156 -274.335938 C 164.3125 -274.335938 177.699219 -272.445312 190.6875 -268.65625 L 187.425781 -257.476562 L 187.425781 -269.121094 L 190.917969 -269.121094 L 193.378906 -267.890625 C 193.585938 -267.789062 194.160156 -267.546875 195.101562 -267.171875 L 190.777344 -256.359375 L 190.777344 -268.003906 L 193.753906 -268.003906 L 195.515625 -267.425781 C 224.429688 -257.96875 248.070312 -240.953125 266.433594 -216.378906 L 266.621094 -216.128906 L 266.792969 -215.867188 C 268.824219 -212.820312 269.496094 -209.566406 268.800781 -206.101562 C 268.109375 -202.636719 266.238281 -199.890625 263.191406 -197.859375 L 256.730469 -207.546875 L 265.210938 -199.566406 L 259.128906 -193.101562 L 84.246094 -18.222656 L 76.011719 -26.457031 L 83.457031 -35.410156 C 102.011719 -19.984375 123.359375 -11.9375 147.507812 -11.265625 L 147.183594 0.371094 L 147.183594 -11.273438 L 150.535156 -11.273438 C 169.117188 -11.046875 186.757812 -15.105469 203.457031 -23.457031 C 220.183594 -31.820312 234.078125 -43.453125 245.148438 -58.363281 L 254.496094 -51.421875 Z M 264.910156 -46.214844 L 264.453125 -45.300781 L 263.84375 -44.480469 C 250.570312 -26.597656 233.910156 -12.644531 213.871094 -2.625 C 193.804688 7.40625 172.695312 12.289062 150.535156 12.015625 L 147.019531 12.015625 L 146.859375 12.011719 C 117.347656 11.191406 91.25 1.355469 68.570312 -17.5 L 58.753906 -25.664062 L 242.535156 -209.445312 L 250.769531 -201.210938 L 242.289062 -209.191406 L 249.164062 -216.496094 L 250.273438 -217.234375 C 247.96875 -215.699219 246.535156 -213.511719 245.964844 -210.667969 C 245.398438 -207.824219 245.878906 -205.253906 247.414062 -202.949219 L 257.105469 -209.410156 L 247.777344 -202.4375 C 232.355469 -223.078125 212.523438 -237.359375 188.277344 -245.292969 L 191.898438 -256.359375 L 191.898438 -244.714844 L 188.535156 -244.714844 L 186.453125 -245.546875 C 184.914062 -246.164062 183.75 -246.667969 182.964844 -247.0625 L 188.171875 -257.476562 L 188.171875 -245.832031 L 185.761719 -245.832031 L 184.164062 -246.296875 C 173.304688 -249.464844 162.097656 -251.050781 150.535156 -251.050781 L 146.972656 -251.050781 C 130.691406 -250.824219 115.398438 -247.5 101.089844 -241.078125 C 86.65625 -234.597656 73.988281 -225.796875 63.09375 -214.675781 C 52.222656 -203.578125 43.78125 -190.773438 37.773438 -176.261719 C 31.78125 -161.792969 28.785156 -146.261719 28.785156 -129.671875 C 28.785156 -113.070312 31.785156 -97.464844 37.785156 -82.859375 C 43.792969 -68.238281 52.226562 -55.382812 63.09375 -44.292969 C 73.96875 -33.1875 86.613281 -24.460938 101.019531 -18.105469 C 115.398438 -11.765625 130.769531 -8.367188 147.132812 -7.914062 L 146.808594 3.726562 L 146.808594 -7.917969 L 150.535156 -7.917969 C 169.582031 -7.917969 187.664062 -12.171875 204.789062 -20.675781 C 221.890625 -29.171875 236.226562 -41.128906 247.789062 -56.542969 L 257.105469 -49.558594 L 247.414062 -56.015625 C 245.960938 -53.835938 245.457031 -51.417969 245.898438 -48.761719 C 246.246094 -46.679688 247.113281 -44.945312 248.496094 -43.558594 L 256.730469 -51.792969 L 251.523438 -41.378906 C 252.667969 -40.808594 254.03125 -40.523438 255.613281 -40.523438 C 257.714844 -40.523438 259.652344 -41.113281 261.421875 -42.292969 C 262.949219 -43.308594 264.113281 -44.617188 264.910156 -46.214844 Z M 40.335938 -129.519531 C 40.109375 -111.839844 43.5625 -94.957031 50.699219 -78.871094 C 57.851562 -62.757812 68.007812 -48.796875 81.179688 -36.988281 L 73.40625 -28.320312 L 65.171875 -36.550781 L 239.554688 -210.9375 L 247.789062 -202.703125 L 237.167969 -197.933594 C 232.382812 -208.585938 225.648438 -217.765625 216.957031 -225.480469 C 208.265625 -233.195312 198.375 -238.789062 187.292969 -242.269531 L 190.777344 -253.378906 L 190.777344 -241.734375 L 187.792969 -241.734375 L 185.707031 -242.566406 C 185.457031 -242.667969 185.304688 -242.726562 185.25 -242.742188 C 185.863281 -242.566406 186.585938 -242.480469 187.425781 -242.480469 L 184.675781 -242.480469 L 181.472656 -244.082031 L 186.679688 -254.496094 L 183.417969 -243.316406 C 172.5625 -246.484375 161.597656 -248.066406 150.535156 -248.066406 L 147.183594 -248.066406 L 147.183594 -259.710938 L 147.53125 -248.074219 C 132.539062 -247.625 118.585938 -244.285156 105.667969 -238.046875 C 92.625 -231.75 81.269531 -223.265625 71.605469 -212.585938 C 61.875 -201.839844 54.230469 -189.367188 48.660156 -175.164062 C 43.109375 -161.003906 40.335938 -145.839844 40.335938 -129.671875 Z M 17.046875 -129.671875 C 17.046875 -148.773438 20.359375 -166.773438 26.980469 -183.664062 C 33.582031 -200.511719 42.703125 -215.363281 54.339844 -228.214844 C 66.039062 -241.136719 79.773438 -251.40625 95.542969 -259.019531 C 111.441406 -266.695312 128.539062 -270.804688 146.835938 -271.351562 L 147.007812 -271.355469 L 150.535156 -271.355469 C 163.816406 -271.355469 176.953125 -269.460938 189.941406 -265.675781 L 190.949219 -265.378906 L 192.632812 -264.539062 L 187.425781 -254.125 L 187.425781 -265.769531 C 189.417969 -265.769531 191.726562 -265.242188 194.359375 -264.191406 L 190.035156 -253.378906 L 190.035156 -265.023438 L 192.5625 -265.023438 L 194.265625 -264.488281 C 208.519531 -260.015625 221.238281 -252.820312 232.417969 -242.898438 C 243.597656 -232.972656 252.265625 -221.164062 258.410156 -207.472656 L 261.699219 -200.148438 L 73.84375 -12.289062 L 65.632812 -19.648438 C 49.984375 -33.675781 37.910156 -50.269531 29.414062 -69.429688 C 20.898438 -88.617188 16.777344 -108.746094 17.046875 -129.820312 Z M 17.046875 -129.671875 "/></g></g></g><g fill="#ffffff" fill-opacity="1"><g transform="translate(243.179211, 295.544241)"><g><path d="M 195.242188 -20.476562 C 197.804688 -19.195312 199.726562 -17.273438 201.007812 -14.710938 C 201.953125 -12.820312 202.421875 -10.773438 202.421875 -8.570312 L 202.421875 0 C 202.421875 3.710938 201.160156 6.828125 198.640625 9.351562 C 196.117188 11.875 193 13.136719 189.289062 13.136719 L 31.300781 13.136719 C 27.585938 13.136719 24.46875 11.875 21.949219 9.351562 C 19.425781 6.828125 18.164062 3.710938 18.164062 0 L 18.164062 -258.96875 C 18.164062 -262.3125 19.140625 -265.203125 21.089844 -267.640625 C 23.667969 -270.863281 27.070312 -272.476562 31.300781 -272.476562 L 38.75 -272.476562 C 42.980469 -272.476562 46.382812 -270.863281 48.960938 -267.640625 C 50.910156 -265.203125 51.886719 -262.3125 51.886719 -258.96875 L 51.886719 -1.492188 L 40.242188 -1.492188 L 40.242188 -13.136719 L 107.6875 -13.136719 C 122.691406 -13.136719 135.09375 -13.320312 144.882812 -13.6875 C 154.253906 -14.035156 162.015625 -14.78125 168.164062 -15.921875 C 173.9375 -16.988281 179.125 -18.570312 183.726562 -20.660156 L 188.542969 -10.0625 L 183.335938 -20.476562 C 187.304688 -22.460938 191.273438 -22.460938 195.242188 -20.476562 Z M 184.824219 0.355469 C 187.800781 1.84375 190.777344 1.84375 193.75 0.355469 L 193.558594 0.449219 L 193.363281 0.539062 C 187.03125 3.417969 180.046875 5.5625 172.40625 6.976562 C 165.140625 8.324219 156.257812 9.191406 145.757812 9.585938 C 135.675781 9.964844 122.984375 10.152344 107.6875 10.152344 L 28.597656 10.152344 L 28.597656 -258.96875 C 28.597656 -256.867188 29.324219 -254.90625 30.777344 -253.089844 C 32.859375 -250.488281 35.519531 -249.1875 38.75 -249.1875 L 31.300781 -249.1875 C 34.535156 -249.1875 37.191406 -250.488281 39.273438 -253.089844 C 40.726562 -254.90625 41.453125 -256.867188 41.453125 -258.96875 L 41.453125 0 C 41.453125 -2.71875 40.441406 -5.089844 38.414062 -7.117188 C 36.390625 -9.140625 34.019531 -10.152344 31.300781 -10.152344 L 189.289062 -10.152344 C 186.570312 -10.152344 184.199219 -9.140625 182.171875 -7.117188 C 180.148438 -5.089844 179.132812 -2.71875 179.132812 0 L 179.132812 -8.570312 C 179.132812 -7.109375 179.480469 -5.683594 180.175781 -4.292969 C 181.210938 -2.226562 182.761719 -0.679688 184.824219 0.355469 Z M 184.824219 0.355469 "/></g></g></g><g fill="#ffffff" fill-opacity="1"><g transform="translate(409.358903, 295.544241)"><g><path d="M 244.082031 -56.628906 C 245.128906 -58.71875 246.601562 -60.402344 248.503906 -61.667969 C 250.644531 -63.097656 253.015625 -63.808594 255.613281 -63.808594 C 257.695312 -63.808594 259.804688 -63.277344 261.9375 -62.207031 L 263.628906 -61.363281 L 264.964844 -60.027344 C 267.097656 -57.894531 268.398438 -55.417969 268.871094 -52.589844 C 269.4375 -49.1875 268.742188 -46.027344 266.792969 -43.097656 L 266.613281 -42.828125 L 266.417969 -42.570312 C 252.644531 -24.203125 235.554688 -9.953125 215.148438 0.183594 C 194.761719 10.308594 173.222656 15.371094 150.535156 15.371094 L 146.648438 15.371094 L 146.488281 15.367188 C 127.078125 14.828125 108.789062 10.773438 91.621094 3.203125 C 74.480469 -4.355469 59.425781 -14.753906 46.457031 -27.996094 C 33.472656 -41.25 23.402344 -56.585938 16.242188 -74.011719 C 9.078125 -91.449219 5.496094 -110.003906 5.496094 -129.671875 C 5.496094 -149.347656 9.082031 -167.847656 16.257812 -185.171875 C 23.414062 -202.460938 33.480469 -217.726562 46.457031 -230.972656 C 59.40625 -244.191406 74.441406 -254.644531 91.554688 -262.324219 C 108.792969 -270.0625 127.15625 -274.066406 146.648438 -274.335938 L 150.535156 -274.335938 C 164.3125 -274.335938 177.699219 -272.445312 190.6875 -268.65625 L 187.425781 -257.476562 L 187.425781 -269.121094 L 190.917969 -269.121094 L 193.378906 -267.890625 C 193.585938 -267.789062 194.160156 -267.546875 195.101562 -267.171875 L 190.777344 -256.359375 L 190.777344 -268.003906 L 193.753906 -268.003906 L 195.515625 -267.425781 C 224.429688 -257.96875 248.070312 -240.953125 266.433594 -216.378906 L 266.621094 -216.128906 L 266.792969 -215.867188 C 268.824219 -212.820312 269.496094 -209.566406 268.800781 -206.101562 C 268.109375 -202.636719 266.238281 -199.890625 263.191406 -197.859375 L 256.730469 -207.546875 L 265.210938 -199.566406 L 259.128906 -193.101562 L 84.246094 -18.222656 L 76.011719 -26.457031 L 83.457031 -35.410156 C 102.011719 -19.984375 123.359375 -11.9375 147.507812 -11.265625 L 147.183594 0.371094 L 147.183594 -11.273438 L 150.535156 -11.273438 C 169.117188 -11.046875 186.757812 -15.105469 203.457031 -23.457031 C 220.183594 -31.820312 234.078125 -43.453125 245.148438 -58.363281 L 254.496094 -51.421875 Z M 264.910156 -46.214844 L 264.453125 -45.300781 L 263.84375 -44.480469 C 250.570312 -26.597656 233.910156 -12.644531 213.871094 -2.625 C 193.804688 7.40625 172.695312 12.289062 150.535156 12.015625 L 147.019531 12.015625 L 146.859375 12.011719 C 117.347656 11.191406 91.25 1.355469 68.570312 -17.5 L 58.753906 -25.664062 L 242.535156 -209.445312 L 250.769531 -201.210938 L 242.289062 -209.191406 L 249.164062 -216.496094 L 250.273438 -217.234375 C 247.96875 -215.699219 246.535156 -213.511719 245.964844 -210.667969 C 245.398438 -207.824219 245.878906 -205.253906 247.414062 -202.949219 L 257.105469 -209.410156 L 247.777344 -202.4375 C 232.355469 -223.078125 212.523438 -237.359375 188.277344 -245.292969 L 191.898438 -256.359375 L 191.898438 -244.714844 L 188.535156 -244.714844 L 186.453125 -245.546875 C 184.914062 -246.164062 183.75 -246.667969 182.964844 -247.0625 L 188.171875 -257.476562 L 188.171875 -245.832031 L 185.761719 -245.832031 L 184.164062 -246.296875 C 173.304688 -249.464844 162.097656 -251.050781 150.535156 -251.050781 L 146.972656 -251.050781 C 130.691406 -250.824219 115.398438 -247.5 101.089844 -241.078125 C 86.65625 -234.597656 73.988281 -225.796875 63.09375 -214.675781 C 52.222656 -203.578125 43.78125 -190.773438 37.773438 -176.261719 C 31.78125 -161.792969 28.785156 -146.261719 28.785156 -129.671875 C 28.785156 -113.070312 31.785156 -97.464844 37.785156 -82.859375 C 43.792969 -68.238281 52.226562 -55.382812 63.09375 -44.292969 C 73.96875 -33.1875 86.613281 -24.460938 101.019531 -18.105469 C 115.398438 -11.765625 130.769531 -8.367188 147.132812 -7.914062 L 146.808594 3.726562 L 146.808594 -7.917969 L 150.535156 -7.917969 C 169.582031 -7.917969 187.664062 -12.171875 204.789062 -20.675781 C 221.890625 -29.171875 236.226562 -41.128906 247.789062 -56.542969 L 257.105469 -49.558594 L 247.414062 -56.015625 C 245.960938 -53.835938 245.457031 -51.417969 245.898438 -48.761719 C 246.246094 -46.679688 247.113281 -44.945312 248.496094 -43.558594 L 256.730469 -51.792969 L 251.523438 -41.378906 C 252.667969 -40.808594 254.03125 -40.523438 255.613281 -40.523438 C 257.714844 -40.523438 259.652344 -41.113281 261.421875 -42.292969 C 262.949219 -43.308594 264.113281 -44.617188 264.910156 -46.214844 Z M 40.335938 -129.519531 C 40.109375 -111.839844 43.5625 -94.957031 50.699219 -78.871094 C 57.851562 -62.757812 68.007812 -48.796875 81.179688 -36.988281 L 73.40625 -28.320312 L 65.171875 -36.550781 L 239.554688 -210.9375 L 247.789062 -202.703125 L 237.167969 -197.933594 C 232.382812 -208.585938 225.648438 -217.765625 216.957031 -225.480469 C 208.265625 -233.195312 198.375 -238.789062 187.292969 -242.269531 L 190.777344 -253.378906 L 190.777344 -241.734375 L 187.792969 -241.734375 L 185.707031 -242.566406 C 185.457031 -242.667969 185.304688 -242.726562 185.25 -242.742188 C 185.863281 -242.566406 186.585938 -242.480469 187.425781 -242.480469 L 184.675781 -242.480469 L 181.472656 -244.082031 L 186.679688 -254.496094 L 183.417969 -243.316406 C 172.5625 -246.484375 161.597656 -248.066406 150.535156 -248.066406 L 147.183594 -248.066406 L 147.183594 -259.710938 L 147.53125 -248.074219 C 132.539062 -247.625 118.585938 -244.285156 105.667969 -238.046875 C 92.625 -231.75 81.269531 -223.265625 71.605469 -212.585938 C 61.875 -201.839844 54.230469 -189.367188 48.660156 -175.164062 C 43.109375 -161.003906 40.335938 -145.839844 40.335938 -129.671875 Z M 17.046875 -129.671875 C 17.046875 -148.773438 20.359375 -166.773438 26.980469 -183.664062 C 33.582031 -200.511719 42.703125 -215.363281 54.339844 -228.214844 C 66.039062 -241.136719 79.773438 -251.40625 95.542969 -259.019531 C 111.441406 -266.695312 128.539062 -270.804688 146.835938 -271.351562 L 147.007812 -271.355469 L 150.535156 -271.355469 C 163.816406 -271.355469 176.953125 -269.460938 189.941406 -265.675781 L 190.949219 -265.378906 L 192.632812 -264.539062 L 187.425781 -254.125 L 187.425781 -265.769531 C 189.417969 -265.769531 191.726562 -265.242188 194.359375 -264.191406 L 190.035156 -253.378906 L 190.035156 -265.023438 L 192.5625 -265.023438 L 194.265625 -264.488281 C 208.519531 -260.015625 221.238281 -252.820312 232.417969 -242.898438 C 243.597656 -232.972656 252.265625 -221.164062 258.410156 -207.472656 L 261.699219 -200.148438 L 73.84375 -12.289062 L 65.632812 -19.648438 C 49.984375 -33.675781 37.910156 -50.269531 29.414062 -69.429688 C 20.898438 -88.617188 16.777344 -108.746094 17.046875 -129.820312 Z M 17.046875 -129.671875 "/></g></g></g><g fill="#ffffff" fill-opacity="1"><g transform="translate(651.922186, 295.544241)"><g><path d="M 112.902344 -272.476562 C 129.964844 -272.476562 145.503906 -268.253906 159.523438 -259.8125 C 173.375 -251.476562 184.398438 -240.378906 192.601562 -226.519531 C 200.886719 -212.519531 205.03125 -197.125 205.03125 -180.34375 L 205.03125 0 C 205.03125 3.710938 203.769531 6.828125 201.25 9.351562 C 198.726562 11.875 195.609375 13.136719 191.898438 13.136719 L 184.445312 13.136719 C 180.730469 13.136719 177.613281 11.875 175.09375 9.351562 C 172.570312 6.828125 171.308594 3.710938 171.308594 0 L 171.308594 -180.34375 C 171.308594 -191.644531 168.554688 -201.96875 163.046875 -211.324219 C 157.480469 -220.773438 149.976562 -228.277344 140.527344 -233.84375 C 131.171875 -239.351562 120.847656 -242.105469 109.546875 -242.105469 C 96.582031 -242.105469 84.765625 -238.394531 74.09375 -230.964844 C 63.398438 -223.519531 55.742188 -213.714844 51.128906 -201.554688 L 40.242188 -205.683594 L 51.886719 -205.683594 L 51.886719 0 C 51.886719 3.710938 50.625 6.828125 48.105469 9.351562 C 45.582031 11.875 42.464844 13.136719 38.75 13.136719 L 31.300781 13.136719 C 27.585938 13.136719 24.46875 11.875 21.949219 9.351562 C 19.425781 6.828125 18.164062 3.710938 18.164062 0 L 18.164062 -258.96875 C 18.164062 -262.3125 19.140625 -265.203125 21.089844 -267.640625 C 23.667969 -270.863281 27.070312 -272.476562 31.300781 -272.476562 L 38.75 -272.476562 C 42.980469 -272.476562 46.382812 -270.863281 48.960938 -267.640625 C 50.910156 -265.203125 51.886719 -262.3125 51.886719 -258.96875 L 51.886719 -214.253906 L 40.242188 -214.253906 L 29.71875 -219.238281 C 37.390625 -235.433594 48.761719 -248.292969 63.832031 -257.816406 C 78.839844 -267.304688 95.132812 -272.191406 112.714844 -272.472656 Z M 113.089844 -249.1875 C 99.867188 -248.972656 87.597656 -245.289062 76.273438 -238.132812 C 65.011719 -231.015625 56.507812 -221.394531 50.765625 -209.269531 L 28.597656 -214.253906 L 28.597656 -258.96875 C 28.597656 -256.867188 29.324219 -254.90625 30.777344 -253.089844 C 32.859375 -250.488281 35.519531 -249.1875 38.75 -249.1875 L 31.300781 -249.1875 C 34.535156 -249.1875 37.191406 -250.488281 39.273438 -253.089844 C 40.726562 -254.90625 41.453125 -256.867188 41.453125 -258.96875 L 41.453125 0 C 41.453125 -2.71875 40.441406 -5.089844 38.414062 -7.117188 C 36.390625 -9.140625 34.019531 -10.152344 31.300781 -10.152344 L 38.75 -10.152344 C 36.035156 -10.152344 33.660156 -9.140625 31.636719 -7.117188 C 29.609375 -5.089844 28.597656 -2.71875 28.597656 0 L 28.597656 -207.816406 L 29.355469 -209.8125 C 35.671875 -226.464844 46.152344 -239.890625 60.789062 -250.078125 C 75.457031 -260.289062 91.710938 -265.394531 109.546875 -265.394531 C 125.078125 -265.394531 139.34375 -261.566406 152.347656 -253.910156 C 165.253906 -246.308594 175.511719 -236.050781 183.113281 -223.144531 C 190.769531 -210.140625 194.597656 -195.875 194.597656 -180.34375 L 194.597656 0 C 194.597656 -2.71875 193.585938 -5.089844 191.558594 -7.117188 C 189.535156 -9.140625 187.164062 -10.152344 184.445312 -10.152344 L 191.898438 -10.152344 C 189.179688 -10.152344 186.804688 -9.140625 184.78125 -7.117188 C 182.753906 -5.089844 181.742188 -2.71875 181.742188 0 L 181.742188 -180.34375 C 181.742188 -192.875 178.683594 -204.3125 172.558594 -214.65625 C 166.355469 -225.144531 158.003906 -233.542969 147.511719 -239.863281 C 137.1875 -246.078125 125.652344 -249.1875 112.902344 -249.1875 Z M 113.089844 -249.1875 "/></g></g></g><g fill="#ffffff" fill-opacity="1"><g transform="translate(844.92927, 295.544241)"><g><path d="M 181.183594 -0.371094 L 181.183594 0.371094 C 181.183594 3.710938 180.015625 6.550781 177.679688 8.886719 C 175.34375 11.222656 172.507812 12.390625 169.167969 12.390625 L 169.167969 0.746094 L 180.8125 0.746094 L 180.8125 1.117188 L 157.523438 1.117188 L 157.523438 0.929688 L 180.8125 0.929688 L 180.8125 12.761719 L 169.167969 12.761719 C 172.257812 12.761719 174.910156 11.65625 177.121094 9.445312 C 179.332031 7.234375 180.4375 4.582031 180.4375 1.492188 L 180.4375 13.136719 L 160.222656 13.136719 C 157.265625 13.136719 154.625 12.265625 152.304688 10.527344 C 150.117188 8.886719 148.578125 6.726562 147.6875 4.054688 L 147.632812 3.890625 L 133.796875 -42.105469 L 144.945312 -45.460938 L 144.945312 -33.816406 L 25.335938 -33.816406 L 25.335938 -45.460938 L 36.488281 -42.105469 L 22.652344 3.890625 L 22.597656 4.054688 C 21.707031 6.726562 20.167969 8.886719 17.980469 10.527344 C 15.660156 12.265625 13.019531 13.136719 10.0625 13.136719 L 8.253906 13.136719 L 6.863281 12.789062 C 3.246094 11.882812 0.519531 9.898438 -1.320312 6.828125 C -3.164062 3.761719 -3.628906 0.417969 -2.726562 -3.195312 L -2.65625 -3.472656 L 72.695312 -252.28125 L 76.28125 -265.046875 L 77.148438 -266.78125 L 87.566406 -261.574219 L 75.921875 -261.574219 L 75.921875 -273.59375 L 87.9375 -273.59375 L 87.9375 -261.949219 L 76.292969 -261.949219 L 76.292969 -273.964844 L 88.308594 -273.964844 L 88.308594 -262.320312 L 76.664062 -262.320312 L 76.664062 -274.335938 L 101.445312 -274.335938 L 101.445312 -262.320312 L 89.800781 -262.320312 L 89.800781 -273.964844 L 101.816406 -273.964844 L 101.816406 -261.949219 L 90.171875 -261.949219 L 90.171875 -273.59375 L 102.191406 -273.59375 L 102.191406 -261.453125 L 78.902344 -261.453125 L 78.902344 -261.574219 L 101.691406 -264.945312 L 181.183594 -2.09375 Z M 157.894531 -0.371094 L 169.539062 -0.371094 L 158.394531 3 L 79.398438 -258.203125 L 90.546875 -261.574219 L 102.191406 -261.574219 L 102.191406 -261.453125 C 102.191406 -259.90625 101.894531 -258.421875 101.304688 -256.996094 C 100.710938 -255.570312 99.871094 -254.308594 98.777344 -253.21875 C 97.6875 -252.125 96.429688 -251.285156 95 -250.695312 C 93.574219 -250.101562 92.089844 -249.808594 90.546875 -249.808594 C 89 -249.808594 87.515625 -250.101562 86.089844 -250.695312 C 84.664062 -251.285156 83.402344 -252.125 82.3125 -253.21875 C 81.21875 -254.308594 80.378906 -255.570312 79.789062 -256.996094 C 79.195312 -258.421875 78.902344 -259.90625 78.902344 -261.453125 L 78.902344 -261.949219 L 90.546875 -261.949219 L 90.546875 -250.304688 L 78.527344 -250.304688 L 78.527344 -262.320312 L 90.171875 -262.320312 L 90.171875 -250.675781 L 78.15625 -250.675781 L 78.15625 -262.695312 L 89.800781 -262.695312 L 89.800781 -251.050781 L 88.308594 -251.050781 L 88.308594 -262.695312 L 99.953125 -262.695312 L 99.953125 -250.675781 L 87.9375 -250.675781 L 87.9375 -262.320312 L 99.582031 -262.320312 L 99.582031 -250.304688 L 87.566406 -250.304688 L 87.566406 -261.949219 L 99.207031 -261.949219 L 99.207031 -258.828125 L 97.605469 -255.621094 L 87.191406 -260.832031 L 98.402344 -257.675781 L 94.984375 -245.53125 L 19.714844 3.003906 L 8.570312 -0.371094 L 19.867188 2.453125 C 20.523438 -0.171875 20.117188 -2.707031 18.648438 -5.152344 C 17.179688 -7.597656 15.136719 -9.152344 12.511719 -9.804688 L 9.6875 1.492188 L 9.6875 -10.152344 L 10.0625 -10.152344 C 7.84375 -10.152344 5.828125 -9.472656 4.003906 -8.105469 C 2.3125 -6.835938 1.148438 -5.238281 0.503906 -3.308594 L 11.550781 0.371094 L 0.398438 -2.980469 L 16.679688 -57.101562 L 153.605469 -57.101562 L 169.882812 -2.980469 L 158.734375 0.371094 L 169.78125 -3.308594 C 169.136719 -5.238281 167.972656 -6.835938 166.28125 -8.105469 C 164.457031 -9.472656 162.4375 -10.152344 160.222656 -10.152344 L 168.792969 -10.152344 L 168.792969 1.492188 L 157.148438 1.492188 C 157.148438 -1.847656 158.316406 -4.6875 160.652344 -7.023438 C 162.988281 -9.359375 165.828125 -10.527344 169.167969 -10.527344 L 169.167969 1.117188 L 157.523438 1.117188 L 157.523438 0.929688 C 157.523438 -0.613281 157.816406 -2.097656 158.410156 -3.523438 C 159 -4.949219 159.839844 -6.210938 160.933594 -7.300781 C 162.023438 -8.394531 163.285156 -9.234375 164.710938 -9.828125 C 166.136719 -10.417969 167.621094 -10.710938 169.167969 -10.710938 C 170.710938 -10.710938 172.195312 -10.417969 173.625 -9.828125 C 175.050781 -9.234375 176.308594 -8.394531 177.402344 -7.300781 C 178.492188 -6.210938 179.335938 -4.949219 179.925781 -3.523438 C 180.515625 -2.097656 180.8125 -0.613281 180.8125 0.929688 L 180.8125 1.117188 L 157.523438 1.117188 L 157.523438 -10.898438 L 169.167969 -10.898438 C 166.074219 -10.898438 163.425781 -9.792969 161.210938 -7.582031 C 159 -5.371094 157.894531 -2.71875 157.894531 0.371094 Z M 96.476562 -239.578125 L 52.132812 -92.769531 L 40.988281 -96.132812 L 40.988281 -107.777344 L 129.671875 -107.777344 L 129.671875 -96.132812 L 118.523438 -92.769531 L 74.183594 -239.578125 L 85.328125 -242.945312 Z M 85.328125 -283.21875 L 145.351562 -84.492188 L 25.308594 -84.492188 L 74.183594 -246.3125 Z M 26.457031 -60.085938 L 143.828125 -60.085938 L 143.828125 -48.441406 L 132.683594 -45.066406 L 119.269531 -89.410156 L 130.414062 -92.78125 L 130.414062 -81.136719 L 39.871094 -81.136719 L 39.871094 -92.78125 L 51.015625 -89.410156 L 37.601562 -45.066406 L 26.457031 -48.441406 Z M 10.765625 -36.796875 L 31.226562 -104.425781 L 139.058594 -104.425781 L 159.515625 -36.796875 Z M 10.765625 -36.796875 "/></g></g></g><g fill="#c4622d" fill-opacity="1"><g transform="translate(0.615928, 295.544241)"><g><path d="M 254.5 -51.421875 C 254.738281 -51.921875 255.109375 -52.171875 255.609375 -52.171875 C 255.859375 -52.171875 256.234375 -52.046875 256.734375 -51.796875 C 257.472656 -51.046875 257.59375 -50.300781 257.09375 -49.5625 C 244.425781 -32.664062 228.710938 -19.5625 209.953125 -10.25 C 191.203125 -0.9375 171.394531 3.71875 150.53125 3.71875 L 146.8125 3.71875 C 128.925781 3.226562 112.09375 -0.492188 96.3125 -7.453125 C 80.539062 -14.410156 66.691406 -23.972656 54.765625 -36.140625 C 42.847656 -48.316406 33.597656 -62.414062 27.015625 -78.4375 C 20.429688 -94.457031 17.140625 -111.535156 17.140625 -129.671875 C 17.140625 -147.804688 20.429688 -164.820312 27.015625 -180.71875 C 33.597656 -196.613281 42.847656 -210.644531 54.765625 -222.8125 C 66.691406 -234.988281 80.539062 -244.613281 96.3125 -251.6875 C 112.09375 -258.769531 128.925781 -262.4375 146.8125 -262.6875 L 150.53125 -262.6875 C 163.195312 -262.6875 175.492188 -260.945312 187.421875 -257.46875 L 188.171875 -257.46875 C 188.660156 -257.21875 189.53125 -256.847656 190.78125 -256.359375 L 191.890625 -256.359375 C 218.472656 -247.660156 240.207031 -232.007812 257.09375 -209.40625 C 257.59375 -208.65625 257.472656 -208.035156 256.734375 -207.546875 L 250.765625 -201.203125 L 76.015625 -26.453125 C 96.628906 -9.316406 120.351562 -0.375 147.1875 0.375 L 150.53125 0.375 C 170.90625 0.625 190.28125 -3.84375 208.65625 -13.03125 C 227.039062 -22.226562 242.320312 -35.023438 254.5 -51.421875 Z M 28.6875 -129.671875 C 28.4375 -110.296875 32.222656 -91.785156 40.046875 -74.140625 C 47.878906 -56.503906 59 -41.226562 73.40625 -28.3125 L 247.78125 -202.703125 C 242.320312 -214.867188 234.625 -225.359375 224.6875 -234.171875 C 214.75 -242.992188 203.445312 -249.394531 190.78125 -253.375 L 190.03125 -253.375 C 188.789062 -253.875 187.921875 -254.125 187.421875 -254.125 L 186.671875 -254.5 C 174.753906 -257.96875 162.707031 -259.703125 150.53125 -259.703125 L 147.1875 -259.703125 C 130.539062 -259.210938 115.015625 -255.488281 100.609375 -248.53125 C 86.203125 -241.570312 73.65625 -232.191406 62.96875 -220.390625 C 52.289062 -208.597656 43.90625 -194.9375 37.8125 -179.40625 C 31.726562 -163.882812 28.6875 -147.304688 28.6875 -129.671875 Z M 28.6875 -129.671875 "/></g></g></g><g fill="#c4622d" fill-opacity="1"><g transform="translate(243.179211, 295.544241)"><g><path d="M 190.03125 -10.0625 C 190.53125 -9.8125 190.78125 -9.3125 190.78125 -8.5625 L 190.78125 0 C 190.78125 0.988281 190.28125 1.484375 189.28125 1.484375 L 38.75 1.484375 C 38.75 1.484375 37.503906 1.484375 35.015625 1.484375 C 32.535156 1.484375 31.296875 1.484375 31.296875 1.484375 C 30.304688 1.484375 29.8125 0.988281 29.8125 0 L 29.8125 -258.96875 C 29.8125 -260.207031 30.304688 -260.828125 31.296875 -260.828125 L 38.75 -260.828125 C 39.738281 -260.828125 40.234375 -260.207031 40.234375 -258.96875 L 40.234375 -1.484375 L 107.6875 -1.484375 C 122.832031 -1.484375 135.375 -1.671875 145.3125 -2.046875 C 155.25 -2.421875 163.570312 -3.226562 170.28125 -4.46875 C 176.988281 -5.707031 183.078125 -7.570312 188.546875 -10.0625 C 189.035156 -10.3125 189.53125 -10.3125 190.03125 -10.0625 Z M 190.03125 -10.0625 "/></g></g></g><g fill="#c4622d" fill-opacity="1"><g transform="translate(409.358903, 295.544241)"><g><path d="M 254.5 -51.421875 C 254.738281 -51.921875 255.109375 -52.171875 255.609375 -52.171875 C 255.859375 -52.171875 256.234375 -52.046875 256.734375 -51.796875 C 257.472656 -51.046875 257.59375 -50.300781 257.09375 -49.5625 C 244.425781 -32.664062 228.710938 -19.5625 209.953125 -10.25 C 191.203125 -0.9375 171.394531 3.71875 150.53125 3.71875 L 146.8125 3.71875 C 128.925781 3.226562 112.09375 -0.492188 96.3125 -7.453125 C 80.539062 -14.410156 66.691406 -23.972656 54.765625 -36.140625 C 42.847656 -48.316406 33.597656 -62.414062 27.015625 -78.4375 C 20.429688 -94.457031 17.140625 -111.535156 17.140625 -129.671875 C 17.140625 -147.804688 20.429688 -164.820312 27.015625 -180.71875 C 33.597656 -196.613281 42.847656 -210.644531 54.765625 -222.8125 C 66.691406 -234.988281 80.539062 -244.613281 96.3125 -251.6875 C 112.09375 -258.769531 128.925781 -262.4375 146.8125 -262.6875 L 150.53125 -262.6875 C 163.195312 -262.6875 175.492188 -260.945312 187.421875 -257.46875 L 188.171875 -257.46875 C 188.660156 -257.21875 189.53125 -256.847656 190.78125 -256.359375 L 191.890625 -256.359375 C 218.472656 -247.660156 240.207031 -232.007812 257.09375 -209.40625 C 257.59375 -208.65625 257.472656 -208.035156 256.734375 -207.546875 L 250.765625 -201.203125 L 76.015625 -26.453125 C 96.628906 -9.316406 120.351562 -0.375 147.1875 0.375 L 150.53125 0.375 C 170.90625 0.625 190.28125 -3.84375 208.65625 -13.03125 C 227.039062 -22.226562 242.320312 -35.023438 254.5 -51.421875 Z M 28.6875 -129.671875 C 28.4375 -110.296875 32.222656 -91.785156 40.046875 -74.140625 C 47.878906 -56.503906 59 -41.226562 73.40625 -28.3125 L 247.78125 -202.703125 C 242.320312 -214.867188 234.625 -225.359375 224.6875 -234.171875 C 214.75 -242.992188 203.445312 -249.394531 190.78125 -253.375 L 190.03125 -253.375 C 188.789062 -253.875 187.921875 -254.125 187.421875 -254.125 L 186.671875 -254.5 C 174.753906 -257.96875 162.707031 -259.703125 150.53125 -259.703125 L 147.1875 -259.703125 C 130.539062 -259.210938 115.015625 -255.488281 100.609375 -248.53125 C 86.203125 -241.570312 73.65625 -232.191406 62.96875 -220.390625 C 52.289062 -208.597656 43.90625 -194.9375 37.8125 -179.40625 C 31.726562 -163.882812 28.6875 -147.304688 28.6875 -129.671875 Z M 28.6875 -129.671875 "/></g></g></g><g fill="#c4622d" fill-opacity="1"><g transform="translate(651.922186, 295.544241)"><g><path d="M 112.90625 -260.828125 C 127.800781 -260.828125 141.332031 -257.160156 153.5 -249.828125 C 165.675781 -242.503906 175.367188 -232.753906 182.578125 -220.578125 C 189.785156 -208.410156 193.390625 -195 193.390625 -180.34375 L 193.390625 0 C 193.390625 0.988281 192.890625 1.484375 191.890625 1.484375 L 184.4375 1.484375 C 183.445312 1.484375 182.953125 0.988281 182.953125 0 L 182.953125 -180.34375 C 182.953125 -193.757812 179.660156 -206.054688 173.078125 -217.234375 C 166.492188 -228.410156 157.613281 -237.289062 146.4375 -243.875 C 135.257812 -250.457031 122.960938 -253.75 109.546875 -253.75 C 94.148438 -253.75 80.113281 -249.335938 67.4375 -240.515625 C 54.769531 -231.703125 45.703125 -220.09375 40.234375 -205.6875 L 40.234375 0 C 40.234375 0.988281 39.738281 1.484375 38.75 1.484375 L 31.296875 1.484375 C 30.304688 1.484375 29.8125 0.988281 29.8125 0 L 29.8125 -258.96875 C 29.8125 -260.207031 30.304688 -260.828125 31.296875 -260.828125 L 38.75 -260.828125 C 39.738281 -260.828125 40.234375 -260.207031 40.234375 -258.96875 L 40.234375 -214.25 C 46.941406 -228.40625 56.878906 -239.644531 70.046875 -247.96875 C 83.210938 -256.289062 97.5 -260.578125 112.90625 -260.828125 Z M 112.90625 -260.828125 "/></g></g></g><g fill="#c4622d" fill-opacity="1"><g transform="translate(844.92927, 295.544241)"><g><path d="M 169.53125 -0.375 C 169.53125 -0.125 169.53125 0.125 169.53125 0.375 C 169.53125 0.625 169.410156 0.75 169.171875 0.75 C 169.171875 0.75 169.171875 0.875 169.171875 1.125 C 169.171875 0.875 169.171875 0.875 169.171875 1.125 C 168.921875 1.125 168.796875 1.242188 168.796875 1.484375 C 168.796875 1.484375 168.671875 1.484375 168.421875 1.484375 C 168.171875 1.484375 168.046875 1.484375 168.046875 1.484375 L 160.21875 1.484375 C 159.476562 1.484375 158.984375 1.113281 158.734375 0.375 L 144.9375 -45.453125 L 25.34375 -45.453125 L 11.546875 0.375 C 11.296875 1.113281 10.800781 1.484375 10.0625 1.484375 C 10.0625 1.484375 9.9375 1.484375 9.6875 1.484375 C 8.695312 1.242188 8.320312 0.625 8.5625 -0.375 L 83.84375 -248.90625 L 87.1875 -260.828125 L 87.5625 -261.578125 C 87.5625 -261.578125 87.5625 -261.695312 87.5625 -261.9375 C 87.5625 -261.9375 87.6875 -261.9375 87.9375 -261.9375 C 87.9375 -262.1875 87.9375 -262.3125 87.9375 -262.3125 C 88.1875 -262.3125 88.3125 -262.3125 88.3125 -262.3125 C 88.3125 -262.5625 88.3125 -262.6875 88.3125 -262.6875 C 88.5625 -262.6875 88.6875 -262.6875 88.6875 -262.6875 C 88.925781 -262.6875 89.046875 -262.6875 89.046875 -262.6875 C 89.296875 -262.6875 89.421875 -262.6875 89.421875 -262.6875 C 89.421875 -262.6875 89.546875 -262.6875 89.796875 -262.6875 C 89.796875 -262.6875 89.796875 -262.5625 89.796875 -262.3125 C 90.046875 -262.3125 90.171875 -262.3125 90.171875 -262.3125 C 90.171875 -262.3125 90.171875 -262.1875 90.171875 -261.9375 C 90.421875 -261.9375 90.546875 -261.9375 90.546875 -261.9375 C 90.546875 -261.445312 90.546875 -261.328125 90.546875 -261.578125 Z M 85.328125 -242.9375 L 40.984375 -96.140625 L 129.671875 -96.140625 Z M 26.453125 -48.4375 L 143.828125 -48.4375 L 130.40625 -92.78125 L 39.875 -92.78125 Z M 26.453125 -48.4375 "/></g></g></g></g></g></g></g></g></svg>